<?xml version="1.0" encoding="UTF-8"?>
<svg id="Layer_1" data-name="Layer 1" xmlns="http://www.w3.org/2000/svg" viewBox="0 0 841.89 595.28">
  <defs>
    <style>
      .cls-1, .cls-2 {
        fill: #fff;
      }

      .cls-2 {
        font-family: PerpetuaTitlingMT-Bold, 'Perpetua Titling MT';
        font-size: 134.95px;
        font-weight: 700;
        stroke: #fff;
      }

      .cls-3 {
        letter-spacing: -.05em;
      }

      .cls-4 {
        letter-spacing: -.08em;
      }

      .cls-5 {
        letter-spacing: -.08em;
      }

      .cls-6 {
        letter-spacing: -.01em;
      }
    </style>
  </defs>
  <g>
    <path class="cls-1" d="m258.63,504.77c-.07,0-.12-.06-.12-.12s.06-.12.12-.12.12.06.12.12-.06.12-.12.12Z"/>
    <path class="cls-1" d="m251.94,498.9c-.14,0-.25-.11-.25-.25s.11-.25.25-.25.25.11.25.25-.11.25-.25.25Z"/>
    <circle class="cls-1" cx="245.47" cy="492.42" r=".37"/>
    <path class="cls-1" d="m239.23,486.45c-.28,0-.5-.22-.5-.5s.22-.5.5-.5.5.22.5.5-.22.5-.5.5Z"/>
    <path class="cls-1" d="m233.23,479.87c-.33,0-.6-.27-.6-.6s.27-.6.6-.6.6.27.6.6-.27.6-.6.6Z"/>
    <path class="cls-1" d="m227.48,473.06c-.38,0-.7-.31-.7-.7s.31-.7.7-.7.7.31.7.7-.31.7-.7.7Z"/>
    <circle class="cls-1" cx="221.98" cy="465.25" r=".79"/>
    <path class="cls-1" d="m216.74,458.83c-.49,0-.88-.39-.88-.88s.39-.88.88-.88.88.39.88.88-.39.88-.88.88Z"/>
    <path class="cls-1" d="m211.78,451.43c-.54,0-.97-.44-.97-.97s.44-.97.97-.97.97.44.97.97-.44.97-.97.97Z"/>
    <path class="cls-1" d="m207.09,443.86c-.59,0-1.07-.48-1.07-1.07s.48-1.07,1.07-1.07,1.07.48,1.07,1.07-.48,1.07-1.07,1.07Z"/>
    <path class="cls-1" d="m202.69,436.11c-.64,0-1.16-.52-1.16-1.16s.52-1.16,1.16-1.16,1.16.52,1.16,1.16-.52,1.16-1.16,1.16Z"/>
    <circle class="cls-1" cx="198.58" cy="426.96" r="1.25"/>
    <path class="cls-1" d="m194.77,420.17c-.74,0-1.35-.6-1.35-1.35s.6-1.35,1.35-1.35,1.35.6,1.35,1.35-.6,1.35-1.35,1.35Z"/>
    <circle class="cls-1" cx="191.26" cy="410.55" r="1.44"/>
    <path class="cls-1" d="m188.05,403.69c-.85,0-1.53-.69-1.53-1.53s.69-1.53,1.53-1.53,1.53.69,1.53,1.53-.69,1.53-1.53,1.53Z"/>
    <path class="cls-1" d="m185.16,395.28c-.9,0-1.62-.73-1.62-1.62s.73-1.62,1.62-1.62,1.62.73,1.62,1.62-.73,1.62-1.62,1.62Z"/>
    <path class="cls-1" d="m182.59,386.77c-.95,0-1.72-.77-1.72-1.72s.77-1.72,1.72-1.72,1.72.77,1.72,1.72-.77,1.72-1.72,1.72Z"/>
    <path class="cls-1" d="m180.33,378.15c-.99,0-1.79-.8-1.79-1.79s.8-1.79,1.79-1.79,1.79.8,1.79,1.79-.8,1.79-1.79,1.79Z"/>
    <circle class="cls-1" cx="178.39" cy="367.58" r="1.86"/>
    <path class="cls-1" d="m176.78,360.67c-1.06,0-1.93-.86-1.93-1.93s.86-1.93,1.93-1.93,1.93.86,1.93,1.93-.86,1.93-1.93,1.93Z"/>
    <circle class="cls-1" cx="175.5" cy="349.85" r="1.99"/>
    <circle class="cls-1" cx="174.54" cy="340.92" r="2.06"/>
    <path class="cls-1" d="m173.91,334.08c-1.18,0-2.13-.95-2.13-2.13s.95-2.13,2.13-2.13,2.13.95,2.13,2.13-.95,2.13-2.13,2.13Z"/>
    <circle class="cls-1" cx="173.6" cy="322.97" r="2.2"/>
    <path class="cls-1" d="m173.62,316.25c-1.25,0-2.26-1.01-2.26-2.26s1.01-2.26,2.26-2.26,2.26,1.01,2.26,2.26-1.01,2.26-2.26,2.26Z"/>
    <circle class="cls-1" cx="173.96" cy="305" r="2.33"/>
    <path class="cls-1" d="m174.62,298.43c-1.32,0-2.4-1.07-2.4-2.4s1.07-2.4,2.4-2.4,2.4,1.07,2.4,2.4-1.07,2.4-2.4,2.4Z"/>
    <circle class="cls-1" cx="175.62" cy="287.11" r="2.44"/>
    <circle class="cls-1" cx="176.94" cy="278.21" r="2.49"/>
    <path class="cls-1" d="m178.58,271.92c-1.4,0-2.54-1.14-2.54-2.54s1.14-2.54,2.54-2.54,2.54,1.14,2.54,2.54-1.14,2.54-2.54,2.54Z"/>
    <path class="cls-1" d="m180.55,263.2c-1.43,0-2.59-1.16-2.59-2.59s1.16-2.59,2.59-2.59,2.59,1.16,2.59,2.59-1.16,2.59-2.59,2.59Z"/>
    <path class="cls-1" d="m182.84,254.56c-1.46,0-2.64-1.18-2.64-2.64s1.18-2.64,2.64-2.64,2.64,1.18,2.64,2.64-1.18,2.64-2.64,2.64Z"/>
    <circle class="cls-1" cx="185.45" cy="243.32" r="2.68"/>
    <path class="cls-1" d="m188.37,237.56c-1.51,0-2.73-1.22-2.73-2.73s1.22-2.73,2.73-2.73,2.73,1.22,2.73,2.73-1.22,2.73-2.73,2.73Z"/>
    <path class="cls-1" d="m191.61,229.22c-1.54,0-2.78-1.25-2.78-2.78s1.25-2.78,2.78-2.78,2.78,1.25,2.78,2.78-1.25,2.78-2.78,2.78Z"/>
    <circle class="cls-1" cx="195.16" cy="218.18" r="2.83"/>
    <circle class="cls-1" cx="199" cy="210.06" r="2.88"/>
    <circle class="cls-1" cx="203.14" cy="202.09" r="2.93"/>
    <path class="cls-1" d="m207.58,197.23c-1.64,0-2.97-1.33-2.97-2.97s1.33-2.97,2.97-2.97,2.97,1.33,2.97,2.97-1.33,2.97-2.97,2.97Z"/>
    <path class="cls-1" d="m212.29,189.61c-1.65,0-2.99-1.34-2.99-2.99s1.34-2.99,2.99-2.99,2.99,1.34,2.99,2.99-1.34,2.99-2.99,2.99Z"/>
    <circle class="cls-1" cx="217.28" cy="179.15" r="3.02"/>
    <circle class="cls-1" cx="222.54" cy="171.87" r="3.05"/>
    <path class="cls-1" d="m228.07,167.86c-1.7,0-3.08-1.38-3.08-3.08s1.38-3.08,3.08-3.08,3.08,1.38,3.08,3.08-1.38,3.08-3.08,3.08Z"/>
    <path class="cls-1" d="m233.84,161.01c-1.72,0-3.11-1.39-3.11-3.11s1.39-3.11,3.11-3.11,3.11,1.39,3.11,3.11-1.39,3.11-3.11,3.11Z"/>
    <circle class="cls-1" cx="239.87" cy="151.24" r="3.14"/>
    <circle class="cls-1" cx="246.13" cy="144.8" r="3.17"/>
    <path class="cls-1" d="m252.62,141.79c-1.77,0-3.2-1.43-3.2-3.2s1.43-3.2,3.2-3.2,3.2,1.43,3.2,3.2-1.43,3.2-3.2,3.2Z"/>
    <path class="cls-1" d="m259.34,135.85c-1.78,0-3.23-1.45-3.23-3.23s1.45-3.23,3.23-3.23,3.23,1.45,3.23,3.23-1.45,3.23-3.23,3.23Z"/>
    <circle class="cls-1" cx="266.27" cy="126.9" r="3.26"/>
    <circle class="cls-1" cx="273.4" cy="121.43" r="3.29"/>
    <path class="cls-1" d="m280.73,119.55c-1.83,0-3.32-1.48-3.32-3.32s1.48-3.32,3.32-3.32,3.32,1.48,3.32,3.32-1.48,3.32-3.32,3.32Z"/>
    <circle class="cls-1" cx="288.24" cy="111.3" r="3.34"/>
    <path class="cls-1" d="m295.93,110.01c-1.85,0-3.36-1.5-3.36-3.36s1.5-3.36,3.36-3.36,3.36,1.5,3.36,3.36-1.5,3.36-3.36,3.36Z"/>
    <circle class="cls-1" cx="303.79" cy="102.29" r="3.37"/>
    <circle class="cls-1" cx="311.8" cy="98.21" r="3.38"/>
    <path class="cls-1" d="m319.95,97.82c-1.87,0-3.39-1.52-3.39-3.39s1.52-3.39,3.39-3.39,3.39,1.52,3.39,3.39-1.52,3.39-3.39,3.39Z"/>
    <circle class="cls-1" cx="328.24" cy="90.96" r="3.4"/>
    <circle class="cls-1" cx="336.65" cy="87.8" r="3.41"/>
    <path class="cls-1" d="m345.16,88.36c-1.89,0-3.42-1.53-3.42-3.42s1.53-3.42,3.42-3.42,3.42,1.53,3.42,3.42-1.53,3.42-3.42,3.42Z"/>
    <path class="cls-1" d="m353.78,85.83c-1.89,0-3.43-1.53-3.43-3.43s1.53-3.43,3.43-3.43,3.43,1.53,3.43,3.43-1.53,3.43-3.43,3.43Z"/>
    <path class="cls-1" d="m362.49,83.63c-1.9,0-3.43-1.54-3.43-3.44s1.54-3.44,3.43-3.44,3.44,1.54,3.44,3.44-1.54,3.44-3.44,3.44Z"/>
    <circle class="cls-1" cx="371.27" cy="78.3" r="3.44"/>
    <path class="cls-1" d="m380.12,80.18c-1.91,0-3.45-1.55-3.45-3.45s1.55-3.45,3.45-3.45,3.45,1.55,3.45,3.45-1.55,3.45-3.45,3.45Z"/>
    <path class="cls-1" d="m389.02,78.95c-1.91,0-3.46-1.55-3.46-3.46s1.55-3.46,3.46-3.46,3.46,1.55,3.46,3.46-1.55,3.46-3.46,3.46Z"/>
    <circle class="cls-1" cx="397.95" cy="74.57" r="3.47"/>
    <circle class="cls-1" cx="406.92" cy="73.98" r="3.48"/>
    <circle class="cls-1" cx="415.91" cy="73.71" r="3.49"/>
    <path class="cls-1" d="m424.89,77.26c-1.93,0-3.5-1.57-3.5-3.5s1.57-3.5,3.5-3.5,3.5,1.57,3.5,3.5-1.57,3.5-3.5,3.5Z"/>
    <path class="cls-1" d="m433.87,77.64c-1.93,0-3.49-1.56-3.49-3.49s1.56-3.49,3.49-3.49,3.49,1.56,3.49,3.49-1.56,3.49-3.49,3.49Z"/>
    <circle class="cls-1" cx="442.83" cy="74.85" r="3.48"/>
    <circle class="cls-1" cx="451.76" cy="75.89" r="3.47"/>
    <circle class="cls-1" cx="460.65" cy="77.25" r="3.46"/>
    <path class="cls-1" d="m469.47,82.38c-1.9,0-3.45-1.54-3.45-3.45s1.54-3.45,3.45-3.45,3.45,1.54,3.45,3.45-1.54,3.45-3.45,3.45Z"/>
    <circle class="cls-1" cx="478.23" cy="80.94" r="3.44"/>
    <path class="cls-1" d="m486.91,86.7c-1.89,0-3.43-1.54-3.43-3.43s1.54-3.43,3.43-3.43,3.43,1.54,3.43,3.43-1.54,3.43-3.43,3.43Z"/>
    <path class="cls-1" d="m495.5,89.34c-1.89,0-3.42-1.53-3.42-3.42s1.53-3.42,3.42-3.42,3.42,1.53,3.42,3.42-1.53,3.42-3.42,3.42Z"/>
    <path class="cls-1" d="m503.98,92.3c-1.88,0-3.41-1.53-3.41-3.41s1.53-3.41,3.41-3.41,3.41,1.53,3.41,3.41-1.53,3.41-3.41,3.41Z"/>
    <circle class="cls-1" cx="512.36" cy="92.16" r="3.4"/>
    <circle class="cls-1" cx="520.6" cy="95.75" r="3.39"/>
    <path class="cls-1" d="m528.7,103.01c-1.87,0-3.38-1.51-3.38-3.38s1.51-3.38,3.38-3.38,3.38,1.51,3.38,3.38-1.51,3.38-3.38,3.38Z"/>
    <path class="cls-1" d="m536.66,107.18c-1.86,0-3.37-1.51-3.37-3.37s1.51-3.37,3.37-3.37,3.37,1.51,3.37,3.37-1.51,3.37-3.37,3.37Z"/>
    <circle class="cls-1" cx="544.45" cy="108.28" r="3.36"/>
    <circle class="cls-1" cx="552.08" cy="113.03" r="3.35"/>
    <circle class="cls-1" cx="559.53" cy="118.05" r="3.33"/>
    <circle class="cls-1" cx="566.79" cy="123.35" r="3.3"/>
    <path class="cls-1" d="m573.85,132.17c-1.8,0-3.27-1.46-3.27-3.27s1.46-3.27,3.27-3.27,3.27,1.46,3.27,3.27-1.46,3.27-3.27,3.27Z"/>
    <circle class="cls-1" cx="580.7" cy="134.71" r="3.24"/>
    <circle class="cls-1" cx="587.34" cy="140.77" r="3.21"/>
    <path class="cls-1" d="m593.75,150.23c-1.76,0-3.18-1.42-3.18-3.18s1.42-3.18,3.18-3.18,3.18,1.42,3.18,3.18-1.42,3.18-3.18,3.18Z"/>
    <circle class="cls-1" cx="599.92" cy="153.58" r="3.15"/>
    <circle class="cls-1" cx="605.86" cy="160.32" r="3.12"/>
    <path class="cls-1" d="m611.55,170.37c-1.71,0-3.09-1.38-3.09-3.09s1.38-3.09,3.09-3.09,3.09,1.38,3.09,3.09-1.38,3.09-3.09,3.09Z"/>
    <circle class="cls-1" cx="616.99" cy="174.44" r="3.06"/>
    <path class="cls-1" d="m622.15,184.82c-1.67,0-3.03-1.36-3.03-3.03s1.36-3.03,3.03-3.03,3.03,1.36,3.03,3.03-1.36,3.03-3.03,3.03Z"/>
    <path class="cls-1" d="m627.05,192.33c-1.66,0-3-1.34-3-3s1.34-3,3-3,3,1.34,3,3-1.34,3-3,3Z"/>
    <circle class="cls-1" cx="631.66" cy="197.03" r="2.97"/>
    <path class="cls-1" d="m635.99,207.85c-1.62,0-2.94-1.32-2.94-2.94s1.32-2.94,2.94-2.94,2.94,1.32,2.94,2.94-1.32,2.94-2.94,2.94Z"/>
    <path class="cls-1" d="m640.03,215.83c-1.6,0-2.89-1.29-2.89-2.89s1.29-2.89,2.89-2.89,2.89,1.29,2.89,2.89-1.29,2.89-2.89,2.89Z"/>
    <circle class="cls-1" cx="643.77" cy="221.11" r="2.84"/>
    <path class="cls-1" d="m647.21,232.21c-1.54,0-2.79-1.25-2.79-2.79s1.25-2.79,2.79-2.79,2.79,1.25,2.79,2.79-1.25,2.79-2.79,2.79Z"/>
    <path class="cls-1" d="m650.33,240.58c-1.52,0-2.74-1.23-2.74-2.74s1.23-2.74,2.74-2.74,2.74,1.23,2.74,2.74-1.23,2.74-2.74,2.74Z"/>
    <path class="cls-1" d="m653.14,249.06c-1.49,0-2.69-1.21-2.69-2.69s1.21-2.69,2.69-2.69,2.69,1.21,2.69,2.69-1.21,2.69-2.69,2.69Z"/>
    <circle class="cls-1" cx="655.64" cy="254.99" r="2.65"/>
    <circle class="cls-1" cx="657.81" cy="263.71" r="2.6"/>
    <path class="cls-1" d="m659.67,275.05c-1.41,0-2.55-1.14-2.55-2.55s1.14-2.55,2.55-2.55,2.55,1.14,2.55,2.55-1.14,2.55-2.55,2.55Z"/>
    <path class="cls-1" d="m661.2,283.86c-1.38,0-2.5-1.12-2.5-2.5s1.12-2.5,2.5-2.5,2.5,1.12,2.5,2.5-1.12,2.5-2.5,2.5Z"/>
    <circle class="cls-1" cx="662.4" cy="290.26" r="2.45"/>
    <circle class="cls-1" cx="663.28" cy="299.2" r="2.4"/>
    <circle class="cls-1" cx="663.83" cy="308.17" r="2.34"/>
    <path class="cls-1" d="m664.05,319.43c-1.26,0-2.27-1.02-2.27-2.27s1.02-2.27,2.27-2.27,2.27,1.02,2.27,2.27-1.02,2.27-2.27,2.27Z"/>
    <path class="cls-1" d="m663.95,328.35c-1.22,0-2.21-.99-2.21-2.21s.99-2.21,2.21-2.21,2.21.99,2.21,2.21-.99,2.21-2.21,2.21Z"/>
    <path class="cls-1" d="m663.53,337.26c-1.18,0-2.14-.96-2.14-2.14s.96-2.14,2.14-2.14,2.14.96,2.14,2.14-.96,2.14-2.14,2.14Z"/>
    <circle class="cls-1" cx="662.79" cy="344.08" r="2.07"/>
    <path class="cls-1" d="m661.71,355.01c-1.11,0-2-.9-2-2s.9-2,2-2,2,.9,2,2-.9,2-2,2Z"/>
    <circle class="cls-1" cx="660.31" cy="361.88" r="1.94"/>
    <path class="cls-1" d="m658.59,372.57c-1.03,0-1.87-.84-1.87-1.87s.84-1.87,1.87-1.87,1.87.84,1.87,1.87-.84,1.87-1.87,1.87Z"/>
    <path class="cls-1" d="m656.54,381.25c-.99,0-1.8-.81-1.8-1.8s.81-1.8,1.8-1.8,1.8.81,1.8,1.8-.81,1.8-1.8,1.8Z"/>
    <path class="cls-1" d="m654.16,389.85c-.95,0-1.73-.77-1.73-1.73s.77-1.73,1.73-1.73,1.73.77,1.73,1.73-.77,1.73-1.73,1.73Z"/>
    <path class="cls-1" d="m651.47,398.33c-.9,0-1.63-.73-1.63-1.63s.73-1.63,1.63-1.63,1.63.73,1.63,1.63-.73,1.63-1.63,1.63Z"/>
    <path class="cls-1" d="m648.47,406.71c-.85,0-1.54-.69-1.54-1.54s.69-1.54,1.54-1.54,1.54.69,1.54,1.54-.69,1.54-1.54,1.54Z"/>
    <circle class="cls-1" cx="645.16" cy="413.52" r="1.45"/>
    <circle class="cls-1" cx="641.53" cy="421.75" r="1.35"/>
    <path class="cls-1" d="m637.61,431.09c-.7,0-1.26-.56-1.26-1.26s.56-1.26,1.26-1.26,1.26.56,1.26,1.26-.56,1.26-1.26,1.26Z"/>
    <path class="cls-1" d="m633.4,438.94c-.64,0-1.17-.52-1.17-1.17s.52-1.17,1.17-1.17,1.17.52,1.17,1.17-.52,1.17-1.17,1.17Z"/>
    <circle class="cls-1" cx="628.89" cy="445.54" r="1.07"/>
    <path class="cls-1" d="m624.11,454.13c-.54,0-.98-.44-.98-.98s.44-.98.98-.98.98.44.98.98-.44.98-.98.98Z"/>
    <path class="cls-1" d="m619.05,461.46c-.49,0-.89-.4-.89-.89s.4-.89.89-.89.89.4.89.89-.4.89-.89.89Z"/>
    <circle class="cls-1" cx="613.72" cy="467.81" r=".79"/>
    <path class="cls-1" d="m608.13,475.55c-.39,0-.7-.31-.7-.7s.31-.7.7-.7.7.31.7.7-.31.7-.7.7Z"/>
    <path class="cls-1" d="m602.28,482.29c-.33,0-.61-.27-.61-.61s.27-.61.61-.61.61.27.61.61-.27.61-.61.61Z"/>
    <path class="cls-1" d="m596.2,488.79c-.28,0-.5-.22-.5-.5s.22-.5.5-.5.5.22.5.5-.22.5-.5.5Z"/>
    <path class="cls-1" d="m589.88,495.05c-.21,0-.38-.17-.38-.38s.17-.38.38-.38.38.17.38.38-.17.38-.38.38Z"/>
    <path class="cls-1" d="m583.33,501.07c-.14,0-.25-.11-.25-.25s.11-.25.25-.25.25.11.25.25-.11.25-.25.25Z"/>
    <path class="cls-1" d="m576.56,506.85c-.07,0-.13-.06-.13-.13s.06-.13.13-.13.13.06.13.13-.06.13-.13.13Z"/>
  </g>
  <g>
    <path class="cls-1" d="m288.59,489.65c-.08,0-.14-.06-.14-.14s.06-.14.14-.14.14.06.14.14-.06.14-.14.14Z"/>
    <path class="cls-1" d="m281.54,484.16c-.15,0-.28-.12-.28-.28s.12-.28.28-.28.28.12.28.28-.12.28-.28.28Z"/>
    <circle class="cls-1" cx="274.73" cy="477.96" r=".42"/>
    <path class="cls-1" d="m268.18,472.32c-.31,0-.55-.25-.55-.55s.25-.55.55-.55.55.25.55.55-.25.55-.55.55Z"/>
    <circle class="cls-1" cx="261.89" cy="465.3" r=".66"/>
    <path class="cls-1" d="m255.87,459.34c-.42,0-.76-.34-.76-.76s.34-.76.76-.76.76.34.76.76-.34.76-.76.76Z"/>
    <path class="cls-1" d="m250.14,452.47c-.48,0-.86-.39-.86-.86s.39-.86.86-.86.86.39.86.86-.39.86-.86.86Z"/>
    <path class="cls-1" d="m244.71,445.37c-.53,0-.97-.43-.97-.97s.43-.97.97-.97.97.43.97.97-.43.97-.97.97Z"/>
    <path class="cls-1" d="m239.58,438.05c-.59,0-1.07-.48-1.07-1.07s.48-1.07,1.07-1.07,1.07.48,1.07,1.07-.48,1.07-1.07,1.07Z"/>
    <path class="cls-1" d="m234.77,430.52c-.65,0-1.17-.53-1.17-1.17s.53-1.17,1.17-1.17,1.17.53,1.17,1.17-.53,1.17-1.17,1.17Z"/>
    <path class="cls-1" d="m230.29,422.8c-.71,0-1.28-.57-1.28-1.28s.57-1.28,1.28-1.28,1.28.57,1.28,1.28-.57,1.28-1.28,1.28Z"/>
    <path class="cls-1" d="m226.13,414.89c-.76,0-1.38-.62-1.38-1.38s.62-1.38,1.38-1.38,1.38.62,1.38,1.38-.62,1.38-1.38,1.38Z"/>
    <path class="cls-1" d="m222.32,406.81c-.82,0-1.49-.67-1.49-1.49s.67-1.49,1.49-1.49,1.49.67,1.49,1.49-.67,1.49-1.49,1.49Z"/>
    <path class="cls-1" d="m218.86,398.58c-.88,0-1.59-.71-1.59-1.59s.71-1.59,1.59-1.59,1.59.71,1.59,1.59-.71,1.59-1.59,1.59Z"/>
    <circle class="cls-1" cx="215.76" cy="388.53" r="1.69"/>
    <path class="cls-1" d="m213.02,381.72c-.98,0-1.78-.8-1.78-1.78s.8-1.78,1.78-1.78,1.78.8,1.78,1.78-.8,1.78-1.78,1.78Z"/>
    <path class="cls-1" d="m210.64,373.09c-1.03,0-1.86-.83-1.86-1.86s.83-1.86,1.86-1.86,1.86.83,1.86,1.86-.83,1.86-1.86,1.86Z"/>
    <circle class="cls-1" cx="208.64" cy="362.44" r="1.93"/>
    <circle class="cls-1" cx="207.01" cy="353.57" r="2.01"/>
    <path class="cls-1" d="m205.75,346.72c-1.15,0-2.08-.93-2.08-2.08s.93-2.08,2.08-2.08,2.08.93,2.08,2.08-.93,2.08-2.08,2.08Z"/>
    <circle class="cls-1" cx="204.87" cy="335.66" r="2.16"/>
    <circle class="cls-1" cx="204.36" cy="326.65" r="2.23"/>
    <path class="cls-1" d="m204.23,319.93c-1.27,0-2.31-1.03-2.31-2.31s1.03-2.31,2.31-2.31,2.31,1.03,2.31,2.31-1.03,2.31-2.31,2.31Z"/>
    <path class="cls-1" d="m204.47,310.99c-1.32,0-2.38-1.07-2.38-2.38s1.07-2.38,2.38-2.38,2.38,1.07,2.38,2.38-1.07,2.38-2.38,2.38Z"/>
    <path class="cls-1" d="m205.08,302.04c-1.35,0-2.44-1.09-2.44-2.44s1.09-2.44,2.44-2.44,2.44,1.09,2.44,2.44-1.09,2.44-2.44,2.44Z"/>
    <path class="cls-1" d="m206.08,293.12c-1.38,0-2.49-1.12-2.49-2.49s1.12-2.49,2.49-2.49,2.49,1.12,2.49,2.49-1.12,2.49-2.49,2.49Z"/>
    <circle class="cls-1" cx="207.44" cy="281.71" r="2.55"/>
    <circle class="cls-1" cx="209.18" cy="272.86" r="2.6"/>
    <path class="cls-1" d="m211.3,266.74c-1.47,0-2.65-1.19-2.65-2.65s1.19-2.65,2.65-2.65,2.65,1.19,2.65,2.65-1.19,2.65-2.65,2.65Z"/>
    <circle class="cls-1" cx="213.78" cy="255.41" r="2.71"/>
    <path class="cls-1" d="m216.63,249.61c-1.52,0-2.76-1.24-2.76-2.76s1.24-2.76,2.76-2.76,2.76,1.24,2.76,2.76-1.24,2.76-2.76,2.76Z"/>
    <path class="cls-1" d="m219.84,241.23c-1.55,0-2.82-1.26-2.82-2.81s1.26-2.81,2.82-2.81,2.81,1.26,2.81,2.81-1.26,2.81-2.81,2.81Z"/>
    <circle class="cls-1" cx="223.41" cy="230.13" r="2.87"/>
    <circle class="cls-1" cx="227.32" cy="222" r="2.92"/>
    <path class="cls-1" d="m231.57,217.01c-1.64,0-2.97-1.33-2.97-2.97s1.33-2.97,2.97-2.97,2.97,1.33,2.97,2.97-1.33,2.97-2.97,2.97Z"/>
    <circle class="cls-1" cx="236.15" cy="206.27" r="3"/>
    <path class="cls-1" d="m241.05,201.73c-1.67,0-3.03-1.36-3.03-3.03s1.36-3.03,3.03-3.03,3.03,1.36,3.03,3.03-1.36,3.03-3.03,3.03Z"/>
    <path class="cls-1" d="m246.27,194.4c-1.69,0-3.06-1.37-3.06-3.06s1.37-3.06,3.06-3.06,3.06,1.37,3.06,3.06-1.37,3.06-3.06,3.06Z"/>
    <circle class="cls-1" cx="251.79" cy="184.2" r="3.1"/>
    <path class="cls-1" d="m257.6,180.43c-1.73,0-3.13-1.4-3.13-3.13s1.4-3.13,3.13-3.13,3.13,1.4,3.13,3.13-1.4,3.13-3.13,3.13Z"/>
    <circle class="cls-1" cx="263.7" cy="170.66" r="3.16"/>
    <path class="cls-1" d="m270.06,167.47c-1.76,0-3.19-1.43-3.19-3.19s1.43-3.19,3.19-3.19,3.19,1.43,3.19,3.19-1.43,3.19-3.19,3.19Z"/>
    <path class="cls-1" d="m276.7,161.38c-1.78,0-3.23-1.44-3.23-3.23s1.44-3.23,3.23-3.23,3.23,1.44,3.23,3.23-1.44,3.23-3.23,3.23Z"/>
    <circle class="cls-1" cx="283.58" cy="152.32" r="3.26"/>
    <path class="cls-1" d="m290.7,150.07c-1.82,0-3.29-1.47-3.29-3.29s1.47-3.29,3.29-3.29,3.29,1.47,3.29,3.29-1.47,3.29-3.29,3.29Z"/>
    <circle class="cls-1" cx="298.04" cy="141.54" r="3.32"/>
    <path class="cls-1" d="m305.6,139.96c-1.85,0-3.35-1.5-3.35-3.35s1.5-3.35,3.35-3.35,3.35,1.5,3.35,3.35-1.5,3.35-3.35,3.35Z"/>
    <path class="cls-1" d="m313.36,135.37c-1.86,0-3.36-1.51-3.36-3.36s1.51-3.36,3.36-3.36,3.36,1.51,3.36,3.36-1.51,3.36-3.36,3.36Z"/>
    <circle class="cls-1" cx="321.31" cy="127.73" r="3.37"/>
    <path class="cls-1" d="m329.43,127.18c-1.87,0-3.38-1.52-3.38-3.38s1.52-3.38,3.38-3.38,3.38,1.52,3.38,3.38-1.52,3.38-3.38,3.38Z"/>
    <circle class="cls-1" cx="337.71" cy="120.21" r="3.4"/>
    <path class="cls-1" d="m346.12,120.38c-1.88,0-3.41-1.52-3.41-3.41s1.53-3.41,3.41-3.41,3.41,1.53,3.41,3.41-1.53,3.41-3.41,3.41Z"/>
    <circle class="cls-1" cx="354.67" cy="114.1" r="3.42"/>
    <circle class="cls-1" cx="363.34" cy="111.59" r="3.43"/>
    <circle class="cls-1" cx="372.1" cy="109.45" r="3.44"/>
    <circle class="cls-1" cx="380.94" cy="107.68" r="3.45"/>
    <path class="cls-1" d="m389.86,109.75c-1.91,0-3.46-1.55-3.46-3.46s1.55-3.46,3.46-3.46,3.46,1.55,3.46,3.46-1.55,3.46-3.46,3.46Z"/>
    <path class="cls-1" d="m398.82,108.74c-1.92,0-3.47-1.55-3.47-3.47s1.55-3.47,3.47-3.47,3.47,1.55,3.47,3.47-1.55,3.47-3.47,3.47Z"/>
    <circle class="cls-1" cx="407.82" cy="104.63" r="3.48"/>
    <path class="cls-1" d="m416.84,107.85c-1.93,0-3.49-1.56-3.49-3.49s1.56-3.49,3.49-3.49,3.49,1.56,3.49,3.49-1.56,3.49-3.49,3.49Z"/>
    <path class="cls-1" d="m425.86,107.96c-1.93,0-3.5-1.57-3.5-3.5s1.57-3.5,3.5-3.5,3.5,1.57,3.5,3.5-1.57,3.5-3.5,3.5Z"/>
    <circle class="cls-1" cx="434.88" cy="104.94" r="3.49"/>
    <circle class="cls-1" cx="443.86" cy="105.8" r="3.47"/>
    <circle class="cls-1" cx="452.8" cy="107.03" r="3.46"/>
    <circle class="cls-1" cx="461.68" cy="108.63" r="3.45"/>
    <path class="cls-1" d="m470.48,114.05c-1.9,0-3.44-1.54-3.44-3.44s1.54-3.44,3.44-3.44,3.44,1.54,3.44,3.44-1.54,3.44-3.44,3.44Z"/>
    <circle class="cls-1" cx="479.19" cy="112.96" r="3.43"/>
    <circle class="cls-1" cx="487.8" cy="115.68" r="3.42"/>
    <path class="cls-1" d="m496.28,122.17c-1.88,0-3.41-1.53-3.41-3.41s1.53-3.41,3.41-3.41,3.41,1.53,3.41,3.41-1.53,3.41-3.41,3.41Z"/>
    <circle class="cls-1" cx="504.62" cy="122.19" r="3.4"/>
    <circle class="cls-1" cx="512.81" cy="125.98" r="3.39"/>
    <circle class="cls-1" cx="520.84" cy="130.11" r="3.38"/>
    <circle class="cls-1" cx="528.68" cy="134.57" r="3.37"/>
    <circle class="cls-1" cx="536.32" cy="139.35" r="3.36"/>
    <path class="cls-1" d="m543.76,147.79c-1.84,0-3.33-1.49-3.33-3.33s1.49-3.33,3.33-3.33,3.33,1.49,3.33,3.33-1.49,3.33-3.33,3.33Z"/>
    <path class="cls-1" d="m550.98,153.17c-1.82,0-3.3-1.48-3.3-3.3s1.48-3.3,3.3-3.3,3.3,1.48,3.3,3.3-1.48,3.3-3.3,3.3Z"/>
    <path class="cls-1" d="m557.96,158.84c-1.81,0-3.27-1.46-3.27-3.27s1.46-3.27,3.27-3.27,3.27,1.46,3.27,3.27-1.46,3.27-3.27,3.27Z"/>
    <circle class="cls-1" cx="564.7" cy="161.57" r="3.24"/>
    <circle class="cls-1" cx="571.19" cy="167.84" r="3.2"/>
    <circle class="cls-1" cx="577.4" cy="174.37" r="3.17"/>
    <circle class="cls-1" cx="583.34" cy="181.17" r="3.14"/>
    <path class="cls-1" d="m588.99,191.31c-1.72,0-3.11-1.39-3.11-3.11s1.39-3.11,3.11-3.11,3.11,1.39,3.11,3.11-1.39,3.11-3.11,3.11Z"/>
    <path class="cls-1" d="m594.34,198.54c-1.7,0-3.07-1.38-3.07-3.07s1.38-3.07,3.07-3.07,3.07,1.38,3.07,3.07-1.38,3.07-3.07,3.07Z"/>
    <path class="cls-1" d="m599.38,205.99c-1.68,0-3.04-1.36-3.04-3.04s1.36-3.04,3.04-3.04,3.04,1.36,3.04,3.04-1.36,3.04-3.04,3.04Z"/>
    <path class="cls-1" d="m604.11,213.64c-1.66,0-3.01-1.35-3.01-3.01s1.35-3.01,3.01-3.01,3.01,1.35,3.01,3.01-1.35,3.01-3.01,3.01Z"/>
    <path class="cls-1" d="m608.5,221.49c-1.64,0-2.97-1.33-2.97-2.97s1.33-2.97,2.97-2.97,2.97,1.33,2.97,2.97-1.33,2.97-2.97,2.97Z"/>
    <circle class="cls-1" cx="612.56" cy="226.57" r="2.93"/>
    <path class="cls-1" d="m616.28,237.68c-1.59,0-2.88-1.29-2.88-2.88s1.29-2.88,2.88-2.88,2.88,1.29,2.88,2.88-1.29,2.88-2.88,2.88Z"/>
    <path class="cls-1" d="m619.64,245.99c-1.56,0-2.83-1.27-2.83-2.83s1.27-2.83,2.83-2.83,2.83,1.27,2.83,2.83-1.27,2.83-2.83,2.83Z"/>
    <path class="cls-1" d="m622.65,254.44c-1.53,0-2.77-1.24-2.77-2.77s1.24-2.77,2.77-2.77,2.77,1.24,2.77,2.77-1.24,2.77-2.77,2.77Z"/>
    <path class="cls-1" d="m625.29,263.01c-1.5,0-2.72-1.22-2.72-2.72s1.22-2.72,2.72-2.72,2.72,1.22,2.72,2.72-1.22,2.72-2.72,2.72Z"/>
    <circle class="cls-1" cx="627.57" cy="269.02" r="2.66"/>
    <circle class="cls-1" cx="629.47" cy="277.84" r="2.61"/>
    <circle class="cls-1" cx="631" cy="286.73" r="2.56"/>
    <circle class="cls-1" cx="632.16" cy="295.68" r="2.5"/>
    <path class="cls-1" d="m632.94,307.11c-1.35,0-2.45-1.1-2.45-2.45s1.1-2.45,2.45-2.45,2.45,1.1,2.45,2.45-1.1,2.45-2.45,2.45Z"/>
    <path class="cls-1" d="m633.34,316.07c-1.32,0-2.39-1.07-2.39-2.39s1.07-2.39,2.39-2.39,2.39,1.07,2.39,2.39-1.07,2.39-2.39,2.39Z"/>
    <path class="cls-1" d="m633.37,325.02c-1.28,0-2.32-1.04-2.32-2.32s1.04-2.32,2.32-2.32,2.32,1.04,2.32,2.32-1.04,2.32-2.32,2.32Z"/>
    <circle class="cls-1" cx="633.03" cy="331.72" r="2.24"/>
    <path class="cls-1" d="m632.31,342.88c-1.2,0-2.17-.97-2.17-2.17s.97-2.17,2.17-2.17,2.17.97,2.17,2.17-.97,2.17-2.17,2.17Z"/>
    <circle class="cls-1" cx="631.22" cy="349.67" r="2.09"/>
    <path class="cls-1" d="m629.75,360.59c-1.11,0-2.02-.9-2.02-2.02s.9-2.02,2.02-2.02,2.02.9,2.02,2.02-.9,2.02-2.02,2.02Z"/>
    <path class="cls-1" d="m627.91,369.35c-1.07,0-1.94-.87-1.94-1.94s.87-1.94,1.94-1.94,1.94.87,1.94,1.94-.87,1.94-1.94,1.94Z"/>
    <path class="cls-1" d="m625.69,378.02c-1.03,0-1.87-.84-1.87-1.87s.84-1.87,1.87-1.87,1.87.84,1.87,1.87-.84,1.87-1.87,1.87Z"/>
    <path class="cls-1" d="m623.1,386.6c-.99,0-1.79-.8-1.79-1.79s.8-1.79,1.79-1.79,1.79.8,1.79,1.79-.8,1.79-1.79,1.79Z"/>
    <circle class="cls-1" cx="620.16" cy="393.33" r="1.7"/>
    <path class="cls-1" d="m616.85,403.33c-.88,0-1.6-.72-1.6-1.6s.72-1.6,1.6-1.6,1.6.72,1.6,1.6-.72,1.6-1.6,1.6Z"/>
    <circle class="cls-1" cx="613.19" cy="409.98" r="1.49"/>
    <circle class="cls-1" cx="609.19" cy="418.06" r="1.39"/>
    <path class="cls-1" d="m604.85,427.26c-.71,0-1.29-.58-1.29-1.29s.58-1.29,1.29-1.29,1.29.58,1.29,1.29-.58,1.29-1.29,1.29Z"/>
    <path class="cls-1" d="m600.17,434.87c-.65,0-1.18-.53-1.18-1.18s.53-1.18,1.18-1.18,1.18.53,1.18,1.18-.53,1.18-1.18,1.18Z"/>
    <path class="cls-1" d="m595.18,442.29c-.59,0-1.08-.48-1.08-1.08s.48-1.08,1.08-1.08,1.08.48,1.08,1.08-.48,1.08-1.08,1.08Z"/>
    <circle class="cls-1" cx="589.88" cy="448.51" r=".97"/>
    <circle class="cls-1" cx="584.28" cy="455.58" r=".87"/>
    <path class="cls-1" d="m578.39,463.18c-.42,0-.76-.34-.76-.76s.34-.76.76-.76.76.34.76.76-.34.76-.76.76Z"/>
    <path class="cls-1" d="m572.21,469.65c-.36,0-.66-.3-.66-.66s.3-.66.66-.66.66.3.66.66-.3.66-.66.66Z"/>
    <path class="cls-1" d="m565.77,475.87c-.31,0-.56-.25-.56-.56s.25-.56.56-.56.56.25.56.56-.25.56-.56.56Z"/>
    <path class="cls-1" d="m559.07,481.77c-.23,0-.42-.19-.42-.42s.19-.42.42-.42.42.19.42.42-.19.42-.42.42Z"/>
    <circle class="cls-1" cx="552.12" cy="487.11" r=".28"/>
    <path class="cls-1" d="m544.94,492.71c-.08,0-.14-.06-.14-.14s.06-.14.14-.14.14.06.14.14-.06.14-.14.14Z"/>
  </g>
  <g>
    <circle class="cls-1" cx="321.06" cy="474.77" r=".16"/>
    <circle class="cls-1" cx="313.54" cy="469.78" r=".31"/>
    <circle class="cls-1" cx="306.27" cy="464.43" r=".47"/>
    <path class="cls-1" d="m299.28,459.34c-.34,0-.61-.27-.61-.61s.27-.61.61-.61.61.27.61.61-.27.61-.61.61Z"/>
    <path class="cls-1" d="m292.57,453.43c-.4,0-.72-.32-.72-.72s.32-.72.72-.72.72.32.72.72-.32.72-.72.72Z"/>
    <path class="cls-1" d="m286.16,447.19c-.46,0-.84-.38-.84-.84s.38-.84.84-.84.84.38.84.84-.38.84-.84.84Z"/>
    <path class="cls-1" d="m280.07,440.65c-.53,0-.96-.43-.96-.96s.43-.96.96-.96.96.43.96.96-.43.96-.96.96Z"/>
    <path class="cls-1" d="m274.31,433.82c-.59,0-1.08-.48-1.08-1.08s.48-1.08,1.08-1.08,1.08.48,1.08,1.08-.48,1.08-1.08,1.08Z"/>
    <path class="cls-1" d="m268.89,426.72c-.66,0-1.19-.53-1.19-1.19s.53-1.19,1.19-1.19,1.19.53,1.19,1.19-.53,1.19-1.19,1.19Z"/>
    <path class="cls-1" d="m263.84,419.36c-.72,0-1.31-.59-1.31-1.31s.59-1.31,1.31-1.31,1.31.59,1.31,1.31-.59,1.31-1.31,1.31Z"/>
    <path class="cls-1" d="m259.16,411.76c-.79,0-1.43-.64-1.43-1.43s.64-1.43,1.43-1.43,1.43.64,1.43,1.43-.64,1.43-1.43,1.43Z"/>
    <circle class="cls-1" cx="254.86" cy="402.39" r="1.54"/>
    <path class="cls-1" d="m250.96,395.92c-.92,0-1.66-.74-1.66-1.66s.74-1.66,1.66-1.66,1.66.74,1.66,1.66-.74,1.66-1.66,1.66Z"/>
    <path class="cls-1" d="m247.46,387.7c-.98,0-1.77-.79-1.77-1.77s.79-1.77,1.77-1.77,1.77.79,1.77,1.77-.79,1.77-1.77,1.77Z"/>
    <path class="cls-1" d="m244.38,379.31c-1.02,0-1.86-.83-1.86-1.86s.83-1.86,1.86-1.86,1.86.83,1.86,1.86-.83,1.86-1.86,1.86Z"/>
    <path class="cls-1" d="m241.73,370.77c-1.07,0-1.94-.87-1.94-1.94s.87-1.94,1.94-1.94,1.94.87,1.94,1.94-.87,1.94-1.94,1.94Z"/>
    <circle class="cls-1" cx="239.5" cy="360.09" r="2.02"/>
    <path class="cls-1" d="m237.71,353.35c-1.16,0-2.11-.94-2.11-2.11s.94-2.11,2.11-2.11,2.11.94,2.11,2.11-.94,2.11-2.11,2.11Z"/>
    <path class="cls-1" d="m236.35,344.52c-1.21,0-2.19-.98-2.19-2.19s.98-2.19,2.19-2.19,2.19.98,2.19,2.19-.98,2.19-2.19,2.19Z"/>
    <path class="cls-1" d="m235.44,335.62c-1.26,0-2.28-1.02-2.28-2.28s1.02-2.28,2.28-2.28,2.28,1.02,2.28,2.28-1.02,2.28-2.28,2.28Z"/>
    <path class="cls-1" d="m234.96,326.7c-1.3,0-2.36-1.06-2.36-2.36s1.06-2.36,2.36-2.36,2.36,1.06,2.36,2.36-1.06,2.36-2.36,2.36Z"/>
    <circle class="cls-1" cx="234.92" cy="315.31" r="2.43"/>
    <path class="cls-1" d="m235.31,308.78c-1.38,0-2.49-1.12-2.49-2.49s1.12-2.49,2.49-2.49,2.49,1.12,2.49,2.49-1.12,2.49-2.49,2.49Z"/>
    <path class="cls-1" d="m236.14,299.85c-1.41,0-2.55-1.14-2.55-2.55s1.14-2.55,2.55-2.55,2.55,1.14,2.55,2.55-1.14,2.55-2.55,2.55Z"/>
    <circle class="cls-1" cx="237.41" cy="288.36" r="2.61"/>
    <path class="cls-1" d="m239.12,282.17c-1.48,0-2.68-1.2-2.68-2.68s1.2-2.68,2.68-2.68,2.68,1.2,2.68,2.68-1.2,2.68-2.68,2.68Z"/>
    <circle class="cls-1" cx="241.26" cy="270.73" r="2.74"/>
    <circle class="cls-1" cx="243.84" cy="262.08" r="2.8"/>
    <circle class="cls-1" cx="246.84" cy="253.57" r="2.86"/>
    <circle class="cls-1" cx="250.25" cy="245.21" r="2.92"/>
    <path class="cls-1" d="m254.08,240.01c-1.64,0-2.97-1.33-2.97-2.97s1.33-2.97,2.97-2.97,2.97,1.33,2.97,2.97-1.33,2.97-2.97,2.97Z"/>
    <circle class="cls-1" cx="258.3" cy="229.06" r="3.01"/>
    <circle class="cls-1" cx="262.9" cy="221.3" r="3.04"/>
    <circle class="cls-1" cx="267.89" cy="213.78" r="3.08"/>
    <path class="cls-1" d="m273.23,209.62c-1.72,0-3.12-1.4-3.12-3.12s1.4-3.12,3.12-3.12,3.12,1.4,3.12,3.12-1.4,3.12-3.12,3.12Z"/>
    <path class="cls-1" d="m278.92,202.66c-1.74,0-3.15-1.41-3.15-3.15s1.41-3.15,3.15-3.15,3.15,1.41,3.15,3.15-1.41,3.15-3.15,3.15Z"/>
    <circle class="cls-1" cx="284.95" cy="192.8" r="3.19"/>
    <path class="cls-1" d="m291.3,189.61c-1.78,0-3.23-1.44-3.23-3.23s1.44-3.23,3.23-3.23,3.23,1.44,3.23,3.23-1.44,3.23-3.23,3.23Z"/>
    <path class="cls-1" d="m297.95,183.55c-1.8,0-3.26-1.46-3.26-3.26s1.46-3.26,3.26-3.26,3.26,1.46,3.26,3.26-1.46,3.26-3.26,3.26Z"/>
    <path class="cls-1" d="m304.89,177.82c-1.82,0-3.3-1.48-3.3-3.3s1.48-3.3,3.3-3.3,3.3,1.48,3.3,3.3-1.48,3.3-3.3,3.3Z"/>
    <circle class="cls-1" cx="312.11" cy="169.1" r="3.34"/>
    <path class="cls-1" d="m319.58,167.4c-1.85,0-3.36-1.5-3.36-3.36s1.5-3.36,3.36-3.36,3.36,1.5,3.36,3.36-1.5,3.36-3.36,3.36Z"/>
    <circle class="cls-1" cx="327.3" cy="159.35" r="3.37"/>
    <circle class="cls-1" cx="335.23" cy="155.05" r="3.38"/>
    <circle class="cls-1" cx="343.37" cy="151.14" r="3.39"/>
    <path class="cls-1" d="m351.68,151.05c-1.88,0-3.41-1.53-3.41-3.41s1.53-3.41,3.41-3.41,3.41,1.53,3.41,3.41-1.53,3.41-3.41,3.41Z"/>
    <circle class="cls-1" cx="360.16" cy="144.55" r="3.42"/>
    <circle class="cls-1" cx="368.78" cy="141.89" r="3.43"/>
    <circle class="cls-1" cx="377.52" cy="139.66" r="3.44"/>
    <circle class="cls-1" cx="386.36" cy="137.86" r="3.46"/>
    <circle class="cls-1" cx="395.29" cy="136.5" r="3.47"/>
    <circle class="cls-1" cx="404.26" cy="135.57" r="3.48"/>
    <circle class="cls-1" cx="413.28" cy="135.09" r="3.49"/>
    <circle class="cls-1" cx="422.3" cy="135.04" r="3.5"/>
    <path class="cls-1" d="m431.32,138.91c-1.92,0-3.48-1.56-3.48-3.48s1.56-3.48,3.48-3.48,3.48,1.56,3.48,3.48-1.56,3.48-3.48,3.48Z"/>
    <path class="cls-1" d="m440.31,139.72c-1.92,0-3.47-1.55-3.47-3.47s1.55-3.47,3.47-3.47,3.47,1.55,3.47,3.47-1.55,3.47-3.47,3.47Z"/>
    <circle class="cls-1" cx="449.25" cy="137.51" r="3.46"/>
    <path class="cls-1" d="m458.11,142.66c-1.9,0-3.45-1.54-3.45-3.45s1.54-3.45,3.45-3.45,3.45,1.54,3.45,3.45-1.54,3.45-3.45,3.45Z"/>
    <circle class="cls-1" cx="466.88" cy="141.35" r="3.43"/>
    <circle class="cls-1" cx="475.53" cy="143.92" r="3.42"/>
    <path class="cls-1" d="m484.05,150.32c-1.88,0-3.41-1.53-3.41-3.41s1.53-3.41,3.41-3.41,3.41,1.53,3.41,3.41-1.53,3.41-3.41,3.41Z"/>
    <path class="cls-1" d="m492.41,153.72c-1.88,0-3.4-1.52-3.4-3.4s1.52-3.4,3.4-3.4,3.4,1.52,3.4,3.4-1.52,3.4-3.4,3.4Z"/>
    <path class="cls-1" d="m500.59,157.52c-1.87,0-3.39-1.52-3.39-3.39s1.52-3.39,3.39-3.39,3.39,1.52,3.39,3.39-1.52,3.39-3.39,3.39Z"/>
    <path class="cls-1" d="m508.57,161.72c-1.86,0-3.37-1.51-3.37-3.37s1.51-3.37,3.37-3.37,3.37,1.51,3.37,3.37-1.51,3.37-3.37,3.37Z"/>
    <circle class="cls-1" cx="516.33" cy="162.95" r="3.36"/>
    <circle class="cls-1" cx="523.86" cy="167.93" r="3.35"/>
    <circle class="cls-1" cx="531.13" cy="173.27" r="3.31"/>
    <circle class="cls-1" cx="538.13" cy="178.95" r="3.27"/>
    <path class="cls-1" d="m544.85,188.21c-1.79,0-3.24-1.45-3.24-3.24s1.45-3.24,3.24-3.24,3.24,1.45,3.24,3.24-1.45,3.24-3.24,3.24Z"/>
    <path class="cls-1" d="m551.27,194.51c-1.77,0-3.2-1.43-3.2-3.2s1.43-3.2,3.2-3.2,3.2,1.43,3.2,3.2-1.43,3.2-3.2,3.2Z"/>
    <circle class="cls-1" cx="557.37" cy="197.97" r="3.16"/>
    <circle class="cls-1" cx="563.14" cy="204.91" r="3.12"/>
    <circle class="cls-1" cx="568.57" cy="212.12" r="3.09"/>
    <path class="cls-1" d="m573.63,222.64c-1.68,0-3.05-1.37-3.05-3.05s1.37-3.05,3.05-3.05,3.05,1.37,3.05,3.05-1.37,3.05-3.05,3.05Z"/>
    <path class="cls-1" d="m578.33,230.31c-1.66,0-3.01-1.35-3.01-3.01s1.35-3.01,3.01-3.01,3.01,1.35,3.01,3.01-1.35,3.01-3.01,3.01Z"/>
    <circle class="cls-1" cx="582.64" cy="235.23" r="2.98"/>
    <circle class="cls-1" cx="586.55" cy="243.36" r="2.93"/>
    <path class="cls-1" d="m590.06,254.54c-1.58,0-2.87-1.28-2.87-2.87s1.28-2.87,2.87-2.87,2.87,1.28,2.87,2.87-1.28,2.87-2.87,2.87Z"/>
    <path class="cls-1" d="m593.15,262.96c-1.55,0-2.81-1.26-2.81-2.81s1.26-2.81,2.81-2.81,2.81,1.26,2.81,2.81-1.26,2.81-2.81,2.81Z"/>
    <path class="cls-1" d="m595.82,271.51c-1.52,0-2.75-1.23-2.75-2.75s1.23-2.75,2.75-2.75,2.75,1.23,2.75,2.75-1.23,2.75-2.75,2.75Z"/>
    <path class="cls-1" d="m598.06,280.19c-1.48,0-2.69-1.2-2.69-2.69s1.2-2.69,2.69-2.69,2.69,1.2,2.69,2.69-1.2,2.69-2.69,2.69Z"/>
    <circle class="cls-1" cx="599.87" cy="286.35" r="2.62"/>
    <circle class="cls-1" cx="601.24" cy="295.27" r="2.56"/>
    <circle class="cls-1" cx="602.17" cy="304.24" r="2.5"/>
    <circle class="cls-1" cx="602.66" cy="313.26" r="2.44"/>
    <path class="cls-1" d="m602.72,324.65c-1.31,0-2.37-1.06-2.37-2.37s1.06-2.37,2.37-2.37,2.37,1.06,2.37,2.37-1.06,2.37-2.37,2.37Z"/>
    <circle class="cls-1" cx="602.34" cy="331.3" r="2.29"/>
    <circle class="cls-1" cx="601.52" cy="340.29" r="2.2"/>
    <circle class="cls-1" cx="600.26" cy="349.23" r="2.12"/>
    <path class="cls-1" d="m598.57,360.13c-1.12,0-2.03-.91-2.03-2.03s.91-2.03,2.03-2.03,2.03.91,2.03,2.03-.91,2.03-2.03,2.03Z"/>
    <circle class="cls-1" cx="596.44" cy="366.87" r="1.95"/>
    <path class="cls-1" d="m593.88,377.39c-1.03,0-1.86-.83-1.86-1.86s.83-1.86,1.86-1.86,1.86.83,1.86,1.86-.83,1.86-1.86,1.86Z"/>
    <circle class="cls-1" cx="590.89" cy="384.04" r="1.78"/>
    <circle class="cls-1" cx="587.49" cy="392.4" r="1.67"/>
    <path class="cls-1" d="m583.68,402.14c-.86,0-1.55-.7-1.55-1.55s.7-1.55,1.55-1.55,1.55.7,1.55,1.55-.7,1.55-1.55,1.55Z"/>
    <path class="cls-1" d="m579.47,410c-.79,0-1.44-.64-1.44-1.44s.64-1.44,1.44-1.44,1.44.64,1.44,1.44-.64,1.44-1.44,1.44Z"/>
    <path class="cls-1" d="m574.87,417.65c-.73,0-1.32-.59-1.32-1.32s.59-1.32,1.32-1.32,1.32.59,1.32,1.32-.59,1.32-1.32,1.32Z"/>
    <path class="cls-1" d="m569.9,425.07c-.66,0-1.2-.54-1.2-1.2s.54-1.2,1.2-1.2,1.2.54,1.2,1.2-.54,1.2-1.2,1.2Z"/>
    <path class="cls-1" d="m564.56,432.23c-.6,0-1.08-.48-1.08-1.08s.48-1.08,1.08-1.08,1.08.48,1.08,1.08-.48,1.08-1.08,1.08Z"/>
    <circle class="cls-1" cx="558.88" cy="438.16" r=".96"/>
    <path class="cls-1" d="m552.86,445.73c-.47,0-.85-.38-.85-.85s.38-.85.85-.85.85.38.85.85-.38.85-.85.85Z"/>
    <path class="cls-1" d="m546.52,452.04c-.4,0-.73-.33-.73-.73s.33-.73.73-.73.73.33.73.73-.33.73-.73.73Z"/>
    <path class="cls-1" d="m539.87,458.03c-.34,0-.61-.27-.61-.61s.27-.61.61-.61.61.27.61.61-.27.61-.61.61Z"/>
    <path class="cls-1" d="m532.94,463.67c-.26,0-.47-.21-.47-.47s.21-.47.47-.47.47.21.47.47-.21.47-.47.47Z"/>
    <circle class="cls-1" cx="525.73" cy="468.62" r=".32"/>
    <path class="cls-1" d="m518.26,473.85c-.09,0-.16-.07-.16-.16s.07-.16.16-.16.16.07.16.16-.07.16-.16.16Z"/>
  </g>
  <g>
    <path class="cls-1" d="m352.33,457.27c-.1,0-.18-.08-.18-.18s.08-.18.18-.18.18.08.18.18-.08.18-.18.18Z"/>
    <path class="cls-1" d="m344.31,453.28c-.2,0-.36-.16-.36-.36s.16-.36.36-.36.36.16.36.36-.16.36-.36.36Z"/>
    <path class="cls-1" d="m336.55,448.84c-.3,0-.54-.24-.54-.54s.24-.54.54-.54.54.24.54.54-.24.54-.54.54Z"/>
    <path class="cls-1" d="m329.08,443.9c-.37,0-.68-.3-.68-.68s.3-.68.68-.68.68.3.68.68-.3.68-.68.68Z"/>
    <path class="cls-1" d="m321.92,438.53c-.45,0-.81-.36-.81-.81s.36-.81.81-.81.81.36.81.81-.36.81-.81.81Z"/>
    <circle class="cls-1" cx="315.1" cy="431.8" r=".95"/>
    <path class="cls-1" d="m308.63,426.57c-.6,0-1.08-.48-1.08-1.08s.48-1.08,1.08-1.08,1.08.48,1.08,1.08-.48,1.08-1.08,1.08Z"/>
    <path class="cls-1" d="m302.54,420.03c-.67,0-1.22-.54-1.22-1.22s.54-1.22,1.22-1.22,1.22.54,1.22,1.22-.54,1.22-1.22,1.22Z"/>
    <path class="cls-1" d="m296.85,413.15c-.75,0-1.35-.61-1.35-1.35s.61-1.35,1.35-1.35,1.35.61,1.35,1.35-.61,1.35-1.35,1.35Z"/>
    <path class="cls-1" d="m291.59,405.94c-.82,0-1.49-.67-1.49-1.49s.67-1.49,1.49-1.49,1.49.67,1.49,1.49-.67,1.49-1.49,1.49Z"/>
    <circle class="cls-1" cx="286.76" cy="396.81" r="1.62"/>
    <path class="cls-1" d="m282.4,390.66c-.97,0-1.75-.79-1.75-1.75s.79-1.75,1.75-1.75,1.75.79,1.75,1.75-.79,1.75-1.75,1.75Z"/>
    <path class="cls-1" d="m278.51,382.6c-1.02,0-1.85-.83-1.85-1.85s.83-1.85,1.85-1.85,1.85.83,1.85,1.85-.83,1.85-1.85,1.85Z"/>
    <path class="cls-1" d="m275.11,374.32c-1.08,0-1.95-.87-1.95-1.95s.87-1.95,1.95-1.95,1.95.87,1.95,1.95-.87,1.95-1.95,1.95Z"/>
    <circle class="cls-1" cx="272.21" cy="363.82" r="2.05"/>
    <circle class="cls-1" cx="269.83" cy="355.11" r="2.14"/>
    <path class="cls-1" d="m267.97,348.51c-1.24,0-2.24-1-2.24-2.24s1-2.24,2.24-2.24,2.24,1,2.24,2.24-1,2.24-2.24,2.24Z"/>
    <circle class="cls-1" cx="266.63" cy="337.34" r="2.34"/>
    <circle class="cls-1" cx="265.82" cy="328.34" r="2.42"/>
    <circle class="cls-1" cx="265.54" cy="319.31" r="2.49"/>
    <path class="cls-1" d="m265.78,312.84c-1.42,0-2.56-1.15-2.56-2.56s1.15-2.56,2.56-2.56,2.56,1.15,2.56,2.56-1.15,2.56-2.56,2.56Z"/>
    <circle class="cls-1" cx="266.54" cy="301.27" r="2.63"/>
    <circle class="cls-1" cx="267.84" cy="292.32" r="2.7"/>
    <path class="cls-1" d="m269.66,286.25c-1.53,0-2.77-1.24-2.77-2.77s1.24-2.77,2.77-2.77,2.77,1.24,2.77,2.77-1.24,2.77-2.77,2.77Z"/>
    <circle class="cls-1" cx="272" cy="274.75" r="2.84"/>
    <path class="cls-1" d="m274.86,269.09c-1.61,0-2.91-1.3-2.91-2.91s1.3-2.91,2.91-2.91,2.91,1.3,2.91,2.91-1.3,2.91-2.91,2.91Z"/>
    <path class="cls-1" d="m278.22,260.76c-1.64,0-2.97-1.33-2.97-2.97s1.33-2.97,2.97-2.97,2.97,1.33,2.97,2.97-1.33,2.97-2.97,2.97Z"/>
    <circle class="cls-1" cx="282.07" cy="249.62" r="3.01"/>
    <circle class="cls-1" cx="286.4" cy="241.69" r="3.06"/>
    <path class="cls-1" d="m291.19,237.12c-1.71,0-3.1-1.39-3.1-3.1s1.39-3.1,3.1-3.1,3.1,1.39,3.1,3.1-1.39,3.1-3.1,3.1Z"/>
    <circle class="cls-1" cx="296.42" cy="226.66" r="3.14"/>
    <circle class="cls-1" cx="302.07" cy="219.61" r="3.18"/>
    <path class="cls-1" d="m308.12,216.14c-1.78,0-3.23-1.44-3.23-3.23s1.44-3.23,3.23-3.23,3.23,1.44,3.23,3.23-1.44,3.23-3.23,3.23Z"/>
    <path class="cls-1" d="m314.56,209.84c-1.8,0-3.27-1.46-3.27-3.27s1.46-3.27,3.27-3.27,3.27,1.46,3.27,3.27-1.46,3.27-3.27,3.27Z"/>
    <path class="cls-1" d="m321.36,203.94c-1.83,0-3.31-1.48-3.31-3.31s1.48-3.31,3.31-3.31,3.31,1.48,3.31,3.31-1.48,3.31-3.31,3.31Z"/>
    <circle class="cls-1" cx="328.49" cy="195.08" r="3.35"/>
    <circle class="cls-1" cx="335.94" cy="189.97" r="3.36"/>
    <circle class="cls-1" cx="343.68" cy="185.31" r="3.38"/>
    <path class="cls-1" d="m351.68,184.5c-1.87,0-3.39-1.52-3.39-3.39s1.52-3.39,3.39-3.39,3.39,1.52,3.39,3.39-1.52,3.39-3.39,3.39Z"/>
    <path class="cls-1" d="m359.91,180.79c-1.88,0-3.41-1.53-3.41-3.41s1.53-3.41,3.41-3.41,3.41,1.53,3.41,3.41-1.53,3.41-3.41,3.41Z"/>
    <circle class="cls-1" cx="368.35" cy="174.16" r="3.42"/>
    <circle class="cls-1" cx="376.96" cy="171.44" r="3.43"/>
    <circle class="cls-1" cx="385.72" cy="169.24" r="3.45"/>
    <circle class="cls-1" cx="394.6" cy="167.56" r="3.46"/>
    <circle class="cls-1" cx="403.56" cy="166.41" r="3.48"/>
    <path class="cls-1" d="m412.57,169.28c-1.93,0-3.49-1.56-3.49-3.49s1.56-3.49,3.49-3.49,3.49,1.56,3.49,3.49-1.56,3.49-3.49,3.49Z"/>
    <circle class="cls-1" cx="421.61" cy="165.69" r="3.5"/>
    <path class="cls-1" d="m430.64,169.59c-1.92,0-3.48-1.56-3.48-3.48s1.56-3.48,3.48-3.48,3.48,1.56,3.48,3.48-1.56,3.48-3.48,3.48Z"/>
    <circle class="cls-1" cx="439.62" cy="167.06" r="3.47"/>
    <circle class="cls-1" cx="448.54" cy="168.54" r="3.45"/>
    <path class="cls-1" d="m457.35,173.98c-1.9,0-3.44-1.54-3.44-3.44s1.54-3.44,3.44-3.44,3.44,1.54,3.44,3.44-1.54,3.44-3.44,3.44Z"/>
    <path class="cls-1" d="m466.03,176.49c-1.89,0-3.42-1.53-3.42-3.42s1.53-3.42,3.42-3.42,3.42,1.53,3.42,3.42-1.53,3.42-3.42,3.42Z"/>
    <path class="cls-1" d="m474.54,179.51c-1.88,0-3.41-1.53-3.41-3.41s1.53-3.41,3.41-3.41,3.41,1.53,3.41,3.41-1.53,3.41-3.41,3.41Z"/>
    <circle class="cls-1" cx="482.85" cy="179.64" r="3.4"/>
    <circle class="cls-1" cx="490.94" cy="183.66" r="3.38"/>
    <path class="cls-1" d="m498.78,191.52c-1.86,0-3.37-1.51-3.37-3.37s1.51-3.37,3.37-3.37,3.37,1.51,3.37,3.37-1.51,3.37-3.37,3.37Z"/>
    <path class="cls-1" d="m506.34,196.45c-1.85,0-3.35-1.5-3.35-3.35s1.5-3.35,3.35-3.35,3.35,1.5,3.35,3.35-1.5,3.35-3.35,3.35Z"/>
    <path class="cls-1" d="m513.6,201.79c-1.83,0-3.32-1.49-3.32-3.32s1.49-3.32,3.32-3.32,3.32,1.49,3.32,3.32-1.49,3.32-3.32,3.32Z"/>
    <circle class="cls-1" cx="520.53" cy="204.27" r="3.28"/>
    <circle class="cls-1" cx="527.1" cy="210.46" r="3.23"/>
    <circle class="cls-1" cx="533.3" cy="217.02" r="3.19"/>
    <circle class="cls-1" cx="539.11" cy="223.94" r="3.15"/>
    <path class="cls-1" d="m544.51,234.3c-1.72,0-3.11-1.39-3.11-3.11s1.39-3.11,3.11-3.11,3.11,1.39,3.11,3.11-1.39,3.11-3.11,3.11Z"/>
    <circle class="cls-1" cx="549.47" cy="238.74" r="3.06"/>
    <path class="cls-1" d="m553.97,249.6c-1.67,0-3.02-1.35-3.02-3.02s1.35-3.02,3.02-3.02,3.02,1.35,3.02,3.02-1.35,3.02-3.02,3.02Z"/>
    <circle class="cls-1" cx="558" cy="254.66" r="2.98"/>
    <path class="cls-1" d="m561.55,265.9c-1.62,0-2.92-1.31-2.92-2.93s1.31-2.93,2.92-2.93,2.93,1.31,2.93,2.93-1.31,2.93-2.93,2.93Z"/>
    <path class="cls-1" d="m564.6,274.33c-1.58,0-2.85-1.28-2.85-2.85s1.28-2.85,2.85-2.85,2.85,1.28,2.85,2.85-1.28,2.85-2.85,2.85Z"/>
    <circle class="cls-1" cx="567.14" cy="280.14" r="2.78"/>
    <path class="cls-1" d="m569.16,291.66c-1.5,0-2.71-1.21-2.71-2.71s1.21-2.71,2.71-2.71,2.71,1.21,2.71,2.71-1.21,2.71-2.71,2.71Z"/>
    <path class="cls-1" d="m570.65,300.5c-1.46,0-2.64-1.18-2.64-2.64s1.18-2.64,2.64-2.64,2.64,1.18,2.64,2.64-1.18,2.64-2.64,2.64Z"/>
    <circle class="cls-1" cx="571.62" cy="306.84" r="2.57"/>
    <path class="cls-1" d="m572.06,318.36c-1.38,0-2.5-1.12-2.5-2.5s1.12-2.5,2.5-2.5,2.5,1.12,2.5,2.5-1.12,2.5-2.5,2.5Z"/>
    <path class="cls-1" d="m571.98,327.33c-1.34,0-2.43-1.09-2.43-2.43s1.09-2.43,2.43-2.43,2.43,1.09,2.43,2.43-1.09,2.43-2.43,2.43Z"/>
    <circle class="cls-1" cx="571.37" cy="333.91" r="2.35"/>
    <path class="cls-1" d="m570.23,345.13c-1.24,0-2.25-1.01-2.25-2.25s1.01-2.25,2.25-2.25,2.25,1.01,2.25,2.25-1.01,2.25-2.25,2.25Z"/>
    <circle class="cls-1" cx="568.57" cy="351.76" r="2.15"/>
    <path class="cls-1" d="m566.38,362.59c-1.14,0-2.06-.92-2.06-2.06s.92-2.06,2.06-2.06,2.06.92,2.06,2.06-.92,2.06-2.06,2.06Z"/>
    <path class="cls-1" d="m563.68,371.11c-1.08,0-1.96-.88-1.96-1.96s.88-1.96,1.96-1.96,1.96.88,1.96,1.96-.88,1.96-1.96,1.96Z"/>
    <path class="cls-1" d="m560.47,379.46c-1.03,0-1.86-.83-1.86-1.86s.83-1.86,1.86-1.86,1.86.83,1.86,1.86-.83,1.86-1.86,1.86Z"/>
    <path class="cls-1" d="m556.76,387.6c-.97,0-1.76-.79-1.76-1.76s.79-1.76,1.76-1.76,1.76.79,1.76,1.76-.79,1.76-1.76,1.76Z"/>
    <circle class="cls-1" cx="552.57" cy="393.85" r="1.63"/>
    <path class="cls-1" d="m547.92,403.09c-.83,0-1.5-.67-1.5-1.5s.67-1.5,1.5-1.5,1.5.67,1.5,1.5-.67,1.5-1.5,1.5Z"/>
    <path class="cls-1" d="m542.82,410.41c-.75,0-1.36-.61-1.36-1.36s.61-1.36,1.36-1.36,1.36.61,1.36,1.36-.61,1.36-1.36,1.36Z"/>
    <path class="cls-1" d="m537.29,417.42c-.68,0-1.22-.55-1.22-1.22s.55-1.22,1.22-1.22,1.22.55,1.22,1.22-.55,1.22-1.22,1.22Z"/>
    <path class="cls-1" d="m531.35,424.09c-.6,0-1.09-.49-1.09-1.09s.49-1.09,1.09-1.09,1.09.49,1.09,1.09-.49,1.09-1.09,1.09Z"/>
    <path class="cls-1" d="m525.02,430.41c-.53,0-.95-.43-.95-.95s.43-.95.95-.95.95.43.95.95-.43.95-.95.95Z"/>
    <path class="cls-1" d="m518.33,436.34c-.45,0-.82-.37-.82-.82s.37-.82.82-.82.82.37.82.82-.37.82-.82.82Z"/>
    <circle class="cls-1" cx="511.29" cy="441.19" r=".68"/>
    <path class="cls-1" d="m503.93,446.97c-.3,0-.55-.24-.55-.55s.24-.55.55-.55.55.24.55.55-.24.55-.55.55Z"/>
    <path class="cls-1" d="m496.28,451.59c-.2,0-.36-.16-.36-.36s.16-.36.36-.36.36.16.36.36-.16.36-.36.36Z"/>
    <path class="cls-1" d="m488.35,455.75c-.1,0-.18-.08-.18-.18s.08-.18.18-.18.18.08.18.18-.08.18-.18.18Z"/>
  </g>
  <g>
    <path class="cls-1" d="m381.85,436.1c-.12,0-.21-.1-.21-.21s.1-.21.21-.21.21.1.21.21-.1.21-.21.21Z"/>
    <circle class="cls-1" cx="373.37" cy="432.86" r=".43"/>
    <path class="cls-1" d="m365.13,429.84c-.34,0-.62-.28-.62-.62s.28-.62.62-.62.62.28.62.62-.28.62-.62.62Z"/>
    <circle class="cls-1" cx="357.19" cy="424.97" r=".8"/>
    <path class="cls-1" d="m349.58,421.13c-.54,0-.98-.44-.98-.98s.44-.98.98-.98.98.44.98.98-.44.98-.98.98Z"/>
    <path class="cls-1" d="m342.34,415.94c-.63,0-1.14-.51-1.14-1.14s.51-1.14,1.14-1.14,1.14.51,1.14,1.14-.51,1.14-1.14,1.14Z"/>
    <circle class="cls-1" cx="335.52" cy="408.93" r="1.29"/>
    <circle class="cls-1" cx="329.14" cy="402.58" r="1.44"/>
    <path class="cls-1" d="m323.24,397.35c-.87,0-1.58-.71-1.58-1.58s.71-1.58,1.58-1.58,1.58.71,1.58,1.58-.71,1.58-1.58,1.58Z"/>
    <path class="cls-1" d="m317.86,390.28c-.95,0-1.73-.77-1.73-1.73s.77-1.73,1.73-1.73,1.73.77,1.73,1.73-.77,1.73-1.73,1.73Z"/>
    <path class="cls-1" d="m313.01,382.81c-1.02,0-1.85-.83-1.85-1.85s.83-1.85,1.85-1.85,1.85.83,1.85,1.85-.83,1.85-1.85,1.85Z"/>
    <path class="cls-1" d="m308.74,375c-1.08,0-1.96-.88-1.96-1.96s.88-1.96,1.96-1.96,1.96.88,1.96,1.96-.88,1.96-1.96,1.96Z"/>
    <circle class="cls-1" cx="305.06" cy="364.81" r="2.08"/>
    <path class="cls-1" d="m302,358.54c-1.21,0-2.19-.98-2.19-2.19s.98-2.19,2.19-2.19,2.19.98,2.19,2.19-.98,2.19-2.19,2.19Z"/>
    <circle class="cls-1" cx="299.58" cy="347.68" r="2.3"/>
    <path class="cls-1" d="m297.8,341.26c-1.33,0-2.41-1.08-2.41-2.41s1.08-2.41,2.41-2.41,2.41,1.08,2.41,2.41-1.08,2.41-2.41,2.41Z"/>
    <circle class="cls-1" cx="296.68" cy="329.92" r="2.49"/>
    <circle class="cls-1" cx="296.21" cy="320.92" r="2.58"/>
    <path class="cls-1" d="m296.39,314.58c-1.47,0-2.66-1.19-2.66-2.66s1.19-2.66,2.66-2.66,2.66,1.19,2.66,2.66-1.19,2.66-2.66,2.66Z"/>
    <path class="cls-1" d="m297.22,305.69c-1.51,0-2.74-1.23-2.74-2.74s1.23-2.74,2.74-2.74,2.74,1.23,2.74,2.74-1.23,2.74-2.74,2.74Z"/>
    <path class="cls-1" d="m298.72,296.89c-1.56,0-2.82-1.26-2.82-2.82s1.26-2.82,2.82-2.82,2.82,1.26,2.82,2.82-1.26,2.82-2.82,2.82Z"/>
    <circle class="cls-1" cx="300.86" cy="285.32" r="2.91"/>
    <circle class="cls-1" cx="303.64" cy="276.75" r="2.97"/>
    <circle class="cls-1" cx="307.05" cy="268.42" r="3.02"/>
    <circle class="cls-1" cx="311.06" cy="260.35" r="3.07"/>
    <circle class="cls-1" cx="315.66" cy="252.61" r="3.12"/>
    <circle class="cls-1" cx="320.81" cy="245.23" r="3.17"/>
    <path class="cls-1" d="m326.49,241.46c-1.78,0-3.22-1.44-3.22-3.22s1.44-3.22,3.22-3.22,3.22,1.44,3.22,3.22-1.44,3.22-3.22,3.22Z"/>
    <circle class="cls-1" cx="332.66" cy="231.68" r="3.27"/>
    <circle class="cls-1" cx="339.29" cy="225.59" r="3.32"/>
    <circle class="cls-1" cx="346.35" cy="220" r="3.36"/>
    <path class="cls-1" d="m353.81,218.32c-1.86,0-3.37-1.51-3.37-3.37s1.51-3.37,3.37-3.37,3.37,1.51,3.37,3.37-1.51,3.37-3.37,3.37Z"/>
    <circle class="cls-1" cx="361.61" cy="210.45" r="3.39"/>
    <circle class="cls-1" cx="369.72" cy="206.54" r="3.41"/>
    <path class="cls-1" d="m378.1,206.66c-1.89,0-3.42-1.53-3.42-3.42s1.53-3.42,3.42-3.42,3.42,1.53,3.42,3.42-1.53,3.42-3.42,3.42Z"/>
    <path class="cls-1" d="m386.69,204.01c-1.9,0-3.44-1.54-3.44-3.44s1.54-3.44,3.44-3.44,3.44,1.54,3.44,3.44-1.54,3.44-3.44,3.44Z"/>
    <circle class="cls-1" cx="395.46" cy="198.54" r="3.46"/>
    <circle class="cls-1" cx="404.36" cy="197.16" r="3.47"/>
    <circle class="cls-1" cx="413.34" cy="196.44" r="3.49"/>
    <circle class="cls-1" cx="422.34" cy="196.37" r="3.49"/>
    <circle class="cls-1" cx="431.33" cy="196.95" r="3.48"/>
    <path class="cls-1" d="m440.26,201.64c-1.91,0-3.46-1.55-3.46-3.46s1.55-3.46,3.46-3.46,3.46,1.55,3.46,3.46-1.55,3.46-3.46,3.46Z"/>
    <path class="cls-1" d="m449.06,203.52c-1.9,0-3.44-1.54-3.44-3.44s1.54-3.44,3.44-3.44,3.44,1.54,3.44,3.44-1.54,3.44-3.44,3.44Z"/>
    <circle class="cls-1" cx="457.7" cy="202.61" r="3.43"/>
    <path class="cls-1" d="m466.13,209.19c-1.88,0-3.41-1.53-3.41-3.41s1.53-3.41,3.41-3.41,3.41,1.53,3.41,3.41-1.53,3.41-3.41,3.41Z"/>
    <circle class="cls-1" cx="474.31" cy="209.56" r="3.39"/>
    <circle class="cls-1" cx="482.18" cy="213.94" r="3.38"/>
    <circle class="cls-1" cx="489.71" cy="218.87" r="3.36"/>
    <circle class="cls-1" cx="496.85" cy="224.35" r="3.33"/>
    <path class="cls-1" d="m503.58,233.62c-1.81,0-3.28-1.47-3.28-3.28s1.47-3.28,3.28-3.28,3.28,1.47,3.28,3.28-1.47,3.28-3.28,3.28Z"/>
    <path class="cls-1" d="m509.85,240.02c-1.79,0-3.23-1.45-3.23-3.23s1.45-3.23,3.23-3.23,3.23,1.45,3.23,3.23-1.45,3.23-3.23,3.23Z"/>
    <circle class="cls-1" cx="515.64" cy="243.69" r="3.18"/>
    <path class="cls-1" d="m520.91,254.13c-1.73,0-3.13-1.4-3.13-3.13s1.4-3.13,3.13-3.13,3.13,1.4,3.13,3.13-1.4,3.13-3.13,3.13Z"/>
    <circle class="cls-1" cx="525.63" cy="258.67" r="3.08"/>
    <circle class="cls-1" cx="529.77" cy="266.66" r="3.03"/>
    <path class="cls-1" d="m533.31,277.93c-1.65,0-2.98-1.34-2.98-2.98s1.34-2.98,2.98-2.98,2.98,1.34,2.98,2.98-1.34,2.98-2.98,2.98Z"/>
    <path class="cls-1" d="m536.23,286.38c-1.61,0-2.92-1.31-2.92-2.92s1.31-2.92,2.92-2.92,2.92,1.31,2.92,2.92-1.31,2.92-2.92,2.92Z"/>
    <circle class="cls-1" cx="538.51" cy="292.17" r="2.83"/>
    <path class="cls-1" d="m540.14,303.78c-1.52,0-2.75-1.23-2.75-2.75s1.23-2.75,2.75-2.75,2.75,1.23,2.75,2.75-1.23,2.75-2.75,2.75Z"/>
    <path class="cls-1" d="m541.11,312.65c-1.47,0-2.67-1.19-2.67-2.67s1.19-2.67,2.67-2.67,2.67,1.19,2.67,2.67-1.19,2.67-2.67,2.67Z"/>
    <circle class="cls-1" cx="541.44" cy="318.98" r="2.59"/>
    <path class="cls-1" d="m541.11,330.49c-1.38,0-2.5-1.12-2.5-2.5s1.12-2.5,2.5-2.5,2.5,1.12,2.5,2.5-1.12,2.5-2.5,2.5Z"/>
    <circle class="cls-1" cx="540.12" cy="336.94" r="2.42"/>
    <path class="cls-1" d="m538.49,348.11c-1.28,0-2.32-1.04-2.32-2.32s1.04-2.32,2.32-2.32,2.32,1.04,2.32,2.32-1.04,2.32-2.32,2.32Z"/>
    <path class="cls-1" d="m536.2,356.71c-1.22,0-2.2-.99-2.2-2.2s.99-2.2,2.2-2.2,2.2.99,2.2,2.2-.99,2.2-2.2,2.2Z"/>
    <circle class="cls-1" cx="533.27" cy="363.02" r="2.09"/>
    <path class="cls-1" d="m529.72,373.27c-1.09,0-1.97-.88-1.97-1.97s.88-1.97,1.97-1.97,1.97.88,1.97,1.97-.88,1.97-1.97,1.97Z"/>
    <circle class="cls-1" cx="525.58" cy="379.3" r="1.85"/>
    <path class="cls-1" d="m520.85,388.7c-.96,0-1.74-.78-1.74-1.74s.78-1.74,1.74-1.74,1.74.78,1.74,1.74-.78,1.74-1.74,1.74Z"/>
    <path class="cls-1" d="m515.58,395.85c-.88,0-1.59-.71-1.59-1.59s.71-1.59,1.59-1.59,1.59.71,1.59,1.59-.71,1.59-1.59,1.59Z"/>
    <path class="cls-1" d="m509.79,402.6c-.8,0-1.44-.65-1.44-1.44s.65-1.44,1.44-1.44,1.44.65,1.44,1.44-.65,1.44-1.44,1.44Z"/>
    <path class="cls-1" d="m503.51,408.91c-.72,0-1.3-.58-1.3-1.3s.58-1.3,1.3-1.3,1.3.58,1.3,1.3-.58,1.3-1.3,1.3Z"/>
    <path class="cls-1" d="m496.77,414.74c-.64,0-1.15-.51-1.15-1.15s.51-1.15,1.15-1.15,1.15.51,1.15,1.15-.51,1.15-1.15,1.15Z"/>
    <path class="cls-1" d="m489.62,420.04c-.54,0-.98-.44-.98-.98s.44-.98.98-.98.98.44.98.98-.44.98-.98.98Z"/>
    <path class="cls-1" d="m482.09,424.8c-.44,0-.8-.36-.8-.8s.36-.8.8-.8.8.36.8.8-.36.8-.8.8Z"/>
    <path class="cls-1" d="m474.21,428.99c-.35,0-.63-.28-.63-.63s.28-.63.63-.63.63.28.63.63-.28.63-.63.63Z"/>
    <path class="cls-1" d="m466.03,432.57c-.24,0-.43-.19-.43-.43s.19-.43.43-.43.43.19.43.43-.19.43-.43.43Z"/>
    <circle class="cls-1" cx="457.6" cy="435.3" r=".21"/>
  </g>
  <g>
    <path class="cls-1" d="m353.28,383.79c-.19,0-.34-.15-.34-.34s.15-.34.34-.34.34.15.34.34-.15.34-.34.34Z"/>
    <path class="cls-1" d="m347.33,377.45c-.36,0-.65-.29-.65-.65s.29-.65.65-.65.65.29.65.65-.29.65-.65.65Z"/>
    <path class="cls-1" d="m342.04,370.53c-.51,0-.93-.42-.93-.93s.42-.93.93-.93.93.42.93.93-.42.93-.93.93Z"/>
    <path class="cls-1" d="m337.49,363.11c-.66,0-1.19-.53-1.19-1.19s.53-1.19,1.19-1.19,1.19.53,1.19,1.19-.53,1.19-1.19,1.19Z"/>
    <circle class="cls-1" cx="333.7" cy="353.83" r="1.42"/>
    <circle class="cls-1" cx="330.72" cy="345.41" r="1.65"/>
    <path class="cls-1" d="m328.57,338.6c-1.02,0-1.85-.83-1.85-1.85s.83-1.85,1.85-1.85,1.85.83,1.85,1.85-.83,1.85-1.85,1.85Z"/>
    <path class="cls-1" d="m327.28,329.94c-1.12,0-2.03-.91-2.03-2.03s.91-2.03,2.03-2.03,2.03.91,2.03,2.03-.91,2.03-2.03,2.03Z"/>
    <path class="cls-1" d="m326.85,321.2c-1.22,0-2.22-.99-2.22-2.22s.99-2.22,2.22-2.22,2.22.99,2.22,2.22-.99,2.22-2.22,2.22Z"/>
    <path class="cls-1" d="m327.27,312.46c-1.32,0-2.4-1.07-2.4-2.4s1.07-2.4,2.4-2.4,2.4,1.07,2.4,2.4-1.07,2.4-2.4,2.4Z"/>
    <circle class="cls-1" cx="328.55" cy="301.22" r="2.53"/>
    <path class="cls-1" d="m330.69,295.2c-1.47,0-2.66-1.19-2.66-2.66s1.19-2.66,2.66-2.66,2.66,1.19,2.66,2.66-1.19,2.66-2.66,2.66Z"/>
    <circle class="cls-1" cx="333.67" cy="284.12" r="2.79"/>
    <circle class="cls-1" cx="337.45" cy="276.03" r="2.92"/>
    <circle class="cls-1" cx="342" cy="268.35" r="3.01"/>
    <path class="cls-1" d="m347.27,264.23c-1.71,0-3.09-1.38-3.09-3.09s1.38-3.09,3.09-3.09,3.09,1.38,3.09,3.09-1.38,3.09-3.09,3.09Z"/>
    <circle class="cls-1" cx="353.21" cy="254.48" r="3.17"/>
    <path class="cls-1" d="m359.77,251.67c-1.79,0-3.25-1.45-3.25-3.25s1.45-3.25,3.25-3.25,3.25,1.45,3.25,3.25-1.45,3.25-3.25,3.25Z"/>
    <path class="cls-1" d="m366.89,246.35c-1.84,0-3.32-1.49-3.32-3.32s1.49-3.32,3.32-3.32,3.32,1.49,3.32,3.32-1.49,3.32-3.32,3.32Z"/>
    <circle class="cls-1" cx="374.49" cy="238.34" r="3.37"/>
    <circle class="cls-1" cx="382.51" cy="234.41" r="3.39"/>
    <circle class="cls-1" cx="390.88" cy="231.29" r="3.42"/>
    <circle class="cls-1" cx="399.51" cy="229" r="3.45"/>
    <circle class="cls-1" cx="408.32" cy="227.56" r="3.47"/>
    <circle class="cls-1" cx="417.23" cy="226.98" r="3.5"/>
    <circle class="cls-1" cx="426.17" cy="227.26" r="3.48"/>
    <path class="cls-1" d="m435.03,231.85c-1.91,0-3.45-1.54-3.45-3.45s1.54-3.45,3.45-3.45,3.45,1.54,3.45,3.45-1.54,3.45-3.45,3.45Z"/>
    <circle class="cls-1" cx="443.74" cy="230.39" r="3.42"/>
    <circle class="cls-1" cx="452.21" cy="233.22" r="3.4"/>
    <path class="cls-1" d="m460.36,240.24c-1.86,0-3.37-1.51-3.37-3.37s1.51-3.37,3.37-3.37,3.37,1.51,3.37,3.37-1.51,3.37-3.37,3.37Z"/>
    <circle class="cls-1" cx="468.12" cy="241.29" r="3.33"/>
    <circle class="cls-1" cx="475.41" cy="246.44" r="3.25"/>
    <path class="cls-1" d="m482.17,255.45c-1.75,0-3.18-1.42-3.18-3.18s1.42-3.18,3.18-3.18,3.18,1.42,3.18,3.18-1.42,3.18-3.18,3.18Z"/>
    <circle class="cls-1" cx="488.34" cy="258.73" r="3.1"/>
    <path class="cls-1" d="m493.85,268.77c-1.67,0-3.02-1.35-3.02-3.02s1.35-3.02,3.02-3.02,3.02,1.35,3.02,3.02-1.35,3.02-3.02,3.02Z"/>
    <circle class="cls-1" cx="498.66" cy="273.28" r="2.93"/>
    <circle class="cls-1" cx="502.72" cy="281.24" r="2.8"/>
    <circle class="cls-1" cx="505.98" cy="289.55" r="2.67"/>
    <path class="cls-1" d="m508.42,300.67c-1.4,0-2.53-1.13-2.53-2.53s1.13-2.53,2.53-2.53,2.53,1.13,2.53,2.53-1.13,2.53-2.53,2.53Z"/>
    <path class="cls-1" d="m510,309.33c-1.33,0-2.4-1.08-2.4-2.4s1.08-2.4,2.4-2.4,2.4,1.08,2.4,2.4-1.08,2.4-2.4,2.4Z"/>
    <path class="cls-1" d="m510.73,318.05c-1.23,0-2.23-1-2.23-2.23s1-2.23,2.23-2.23,2.23,1,2.23,2.23-1,2.23-2.23,2.23Z"/>
    <path class="cls-1" d="m510.6,326.81c-1.13,0-2.04-.92-2.04-2.04s.92-2.04,2.04-2.04,2.04.92,2.04,2.04-.92,2.04-2.04,2.04Z"/>
    <path class="cls-1" d="m509.61,335.5c-1.03,0-1.86-.83-1.86-1.86s.83-1.86,1.86-1.86,1.86.83,1.86,1.86-.83,1.86-1.86,1.86Z"/>
    <path class="cls-1" d="m507.77,344.04c-.92,0-1.66-.74-1.66-1.66s.74-1.66,1.66-1.66,1.66.74,1.66,1.66-.74,1.66-1.66,1.66Z"/>
    <path class="cls-1" d="m505.07,352.33c-.79,0-1.43-.64-1.43-1.43s.64-1.43,1.43-1.43,1.43.64,1.43,1.43-.64,1.43-1.43,1.43Z"/>
    <circle class="cls-1" cx="501.56" cy="359.11" r="1.2"/>
    <path class="cls-1" d="m497.27,367.88c-.52,0-.94-.42-.94-.94s.42-.94.94-.94.94.42.94.94-.42.94-.94.94Z"/>
    <circle class="cls-1" cx="492.24" cy="374.32" r=".65"/>
    <path class="cls-1" d="m486.51,381.52c-.19,0-.34-.15-.34-.34s.15-.34.34-.34.34.15.34.34-.15.34-.34.34Z"/>
  </g>
  <g>
    <path class="cls-1" d="m382.6,368.88c-.26,0-.47-.21-.47-.47s.21-.47.47-.47.47.21.47.47-.21.47-.47.47Z"/>
    <path class="cls-1" d="m375.71,363.41c-.48,0-.87-.39-.87-.87s.39-.87.87-.87.87.39.87.87-.39.87-.87.87Z"/>
    <path class="cls-1" d="m369.76,356.95c-.68,0-1.23-.55-1.23-1.23s.55-1.23,1.23-1.23,1.23.55,1.23,1.23-.55,1.23-1.23,1.23Z"/>
    <path class="cls-1" d="m364.87,349.65c-.86,0-1.55-.69-1.55-1.55s.69-1.55,1.55-1.55,1.55.69,1.55,1.55-.69,1.55-1.55,1.55Z"/>
    <circle class="cls-1" cx="361.16" cy="339.84" r="1.84"/>
    <path class="cls-1" d="m358.71,333.22c-1.16,0-2.09-.94-2.09-2.09s.94-2.09,2.09-2.09,2.09.94,2.09,2.09-.94,2.09-2.09,2.09Z"/>
    <circle class="cls-1" cx="357.59" cy="322.14" r="2.35"/>
    <path class="cls-1" d="m357.78,315.63c-1.4,0-2.54-1.14-2.54-2.54s1.14-2.54,2.54-2.54,2.54,1.14,2.54,2.54-1.14,2.54-2.54,2.54Z"/>
    <path class="cls-1" d="m359.3,306.88c-1.5,0-2.72-1.22-2.72-2.72s1.22-2.72,2.72-2.72,2.72,1.22,2.72,2.72-1.22,2.72-2.72,2.72Z"/>
    <path class="cls-1" d="m362.12,298.46c-1.6,0-2.9-1.3-2.9-2.9s1.3-2.9,2.9-2.9,2.9,1.3,2.9,2.9-1.3,2.9-2.9,2.9Z"/>
    <circle class="cls-1" cx="366.19" cy="287.47" r="3.03"/>
    <circle class="cls-1" cx="371.4" cy="280.06" r="3.14"/>
    <circle class="cls-1" cx="377.64" cy="273.51" r="3.25"/>
    <path class="cls-1" d="m384.78,271.29c-1.85,0-3.35-1.5-3.35-3.35s1.5-3.35,3.35-3.35,3.35,1.5,3.35,3.35-1.5,3.35-3.35,3.35Z"/>
    <path class="cls-1" d="m392.65,266.86c-1.87,0-3.39-1.52-3.39-3.39s1.52-3.39,3.39-3.39,3.39,1.52,3.39,3.39-1.52,3.39-3.39,3.39Z"/>
    <path class="cls-1" d="m401.1,263.65c-1.89,0-3.43-1.53-3.43-3.43s1.53-3.43,3.43-3.43,3.43,1.53,3.43,3.43-1.53,3.43-3.43,3.43Z"/>
    <path class="cls-1" d="m409.94,261.73c-1.91,0-3.46-1.55-3.46-3.46s1.55-3.46,3.46-3.46,3.46,1.55,3.46,3.46-1.55,3.46-3.46,3.46Z"/>
    <circle class="cls-1" cx="418.97" cy="257.63" r="3.5"/>
    <circle class="cls-1" cx="428" cy="258.31" r="3.47"/>
    <circle class="cls-1" cx="436.84" cy="260.32" r="3.43"/>
    <circle class="cls-1" cx="445.27" cy="263.61" r="3.39"/>
    <circle class="cls-1" cx="453.12" cy="268.12" r="3.36"/>
    <path class="cls-1" d="m460.23,276.99c-1.8,0-3.26-1.46-3.26-3.26s1.46-3.26,3.26-3.26,3.26,1.46,3.26,3.26-1.46,3.26-3.26,3.26Z"/>
    <path class="cls-1" d="m466.43,283.46c-1.74,0-3.15-1.41-3.15-3.15s1.41-3.15,3.15-3.15,3.15,1.41,3.15,3.15-1.41,3.15-3.15,3.15Z"/>
    <circle class="cls-1" cx="471.61" cy="287.74" r="3.04"/>
    <path class="cls-1" d="m475.63,298.77c-1.61,0-2.91-1.3-2.91-2.91s1.3-2.91,2.91-2.91,2.91,1.3,2.91,2.91-1.3,2.91-2.91,2.91Z"/>
    <circle class="cls-1" cx="478.41" cy="304.47" r="2.73"/>
    <path class="cls-1" d="m479.88,315.95c-1.41,0-2.55-1.14-2.55-2.55s1.14-2.55,2.55-2.55,2.55,1.14,2.55,2.55-1.14,2.55-2.55,2.55Z"/>
    <circle class="cls-1" cx="480.03" cy="322.46" r="2.36"/>
    <path class="cls-1" d="m478.85,333.54c-1.16,0-2.1-.94-2.1-2.1s.94-2.1,2.1-2.1,2.1.94,2.1,2.1-.94,2.1-2.1,2.1Z"/>
    <circle class="cls-1" cx="476.36" cy="340.15" r="1.85"/>
    <path class="cls-1" d="m472.6,349.94c-.86,0-1.56-.7-1.56-1.56s.7-1.56,1.56-1.56,1.56.7,1.56,1.56-.7,1.56-1.56,1.56Z"/>
    <path class="cls-1" d="m467.67,357.22c-.68,0-1.24-.55-1.24-1.24s.55-1.24,1.24-1.24,1.24.55,1.24,1.24-.55,1.24-1.24,1.24Z"/>
    <circle class="cls-1" cx="461.68" cy="362.77" r=".87"/>
    <path class="cls-1" d="m454.76,369.08c-.26,0-.47-.21-.47-.47s.21-.47.47-.47.47.21.47.47-.21.47-.47.47Z"/>
  </g>
  <g>
    <circle class="cls-1" cx="403.59" cy="345.55" r=".83"/>
    <path class="cls-1" d="m396.68,341.63c-.82,0-1.48-.66-1.48-1.48s.66-1.48,1.48-1.48,1.48.66,1.48,1.48-.66,1.48-1.48,1.48Z"/>
    <path class="cls-1" d="m391.58,335.04c-1.11,0-2.02-.9-2.02-2.02s.9-2.02,2.02-2.02,2.02.9,2.02,2.02-.9,2.02-2.02,2.02Z"/>
    <path class="cls-1" d="m388.7,327.19c-1.36,0-2.46-1.1-2.46-2.46s1.1-2.46,2.46-2.46,2.46,1.1,2.46,2.46-1.1,2.46-2.46,2.46Z"/>
    <path class="cls-1" d="m388.3,318.76c-1.55,0-2.81-1.26-2.81-2.81s1.26-2.81,2.81-2.81,2.81,1.26,2.81,2.81-1.26,2.81-2.81,2.81Z"/>
    <circle class="cls-1" cx="390.39" cy="307.43" r="3.09"/>
    <circle class="cls-1" cx="394.82" cy="299.86" r="3.29"/>
    <path class="cls-1" d="m401.2,297.26c-1.89,0-3.42-1.53-3.42-3.42s1.53-3.42,3.42-3.42,3.42,1.53,3.42,3.42-1.53,3.42-3.42,3.42Z"/>
    <path class="cls-1" d="m409.03,293.36c-1.92,0-3.48-1.56-3.48-3.48s1.56-3.48,3.48-3.48,3.48,1.56,3.48,3.48-1.56,3.48-3.48,3.48Z"/>
    <path class="cls-1" d="m417.66,291.79c-1.92,0-3.48-1.56-3.48-3.48s1.56-3.48,3.48-3.48,3.48,1.56,3.48,3.48-1.56,3.48-3.48,3.48Z"/>
    <circle class="cls-1" cx="426.39" cy="289.23" r="3.42"/>
    <circle class="cls-1" cx="434.5" cy="292.59" r="3.3"/>
    <circle class="cls-1" cx="441.31" cy="298.11" r="3.1"/>
    <circle class="cls-1" cx="446.29" cy="305.33" r="2.82"/>
    <path class="cls-1" d="m449.02,316.15c-1.37,0-2.47-1.11-2.47-2.47s1.11-2.47,2.47-2.47,2.47,1.11,2.47,2.47-1.11,2.47-2.47,2.47Z"/>
    <path class="cls-1" d="m449.27,324.48c-1.12,0-2.02-.91-2.02-2.02s.91-2.02,2.02-2.02,2.02.91,2.02,2.02-.91,2.02-2.02,2.02Z"/>
    <path class="cls-1" d="m447.03,332.43c-.82,0-1.49-.67-1.49-1.49s.67-1.49,1.49-1.49,1.49.67,1.49,1.49-.67,1.49-1.49,1.49Z"/>
    <path class="cls-1" d="m442.47,339.27c-.46,0-.83-.37-.83-.83s.37-.83.83-.83.83.37.83.83-.37.83-.83.83Z"/>
  </g>
  <text class="cls-2" transform="translate(167.89 491.47)"><tspan class="cls-5" x="0" y="0">D</tspan><tspan class="cls-4" x="103.78" y="0">Y</tspan><tspan class="cls-6" x="203.8" y="0">O</tspan><tspan class="cls-3" x="313.12" y="0">T</tspan><tspan x="399.24" y="0">A</tspan></text>
</svg>