<?xml version="1.0" encoding="UTF-8"?>
<svg id="Layer_1" data-name="Layer 1" xmlns="http://www.w3.org/2000/svg" viewBox="0 0 841.89 595.28">
  <defs>
    <style>
      .cls-1 {
        fill: #231f20;
        font-family: PerpetuaTitlingMT-Bold, 'Perpetua Titling MT';
        font-size: 134.95px;
        font-weight: 700;
      }

      .cls-2 {
        letter-spacing: -.05em;
      }

      .cls-3 {
        letter-spacing: -.08em;
      }

      .cls-4 {
        letter-spacing: -.08em;
      }

      .cls-5 {
        letter-spacing: -.01em;
      }
    </style>
  </defs>
  <g>
    <path d="m258.63,504.77c-.07,0-.12-.06-.12-.12s.06-.12.12-.12.12.06.12.12-.06.12-.12.12Z"/>
    <path d="m251.94,498.9c-.14,0-.25-.11-.25-.25s.11-.25.25-.25.25.11.25.25-.11.25-.25.25Z"/>
    <circle cx="245.47" cy="492.42" r=".37"/>
    <path d="m239.23,486.45c-.28,0-.5-.22-.5-.5s.22-.5.5-.5.5.22.5.5-.22.5-.5.5Z"/>
    <path d="m233.23,479.87c-.33,0-.6-.27-.6-.6s.27-.6.6-.6.6.27.6.6-.27.6-.6.6Z"/>
    <path d="m227.48,473.06c-.38,0-.7-.31-.7-.7s.31-.7.7-.7.7.31.7.7-.31.7-.7.7Z"/>
    <path d="m221.98,466.04c-.44,0-.79-.35-.79-.79s.35-.79.79-.79.79.35.79.79-.35.79-.79.79Z"/>
    <path d="m216.74,458.83c-.49,0-.88-.39-.88-.88s.39-.88.88-.88.88.39.88.88-.39.88-.88.88Z"/>
    <path d="m211.78,451.43c-.54,0-.97-.44-.97-.97s.44-.97.97-.97.97.44.97.97-.44.97-.97.97Z"/>
    <circle cx="207.09" cy="442.79" r="1.07"/>
    <path d="m202.69,436.11c-.64,0-1.16-.52-1.16-1.16s.52-1.16,1.16-1.16,1.16.52,1.16,1.16-.52,1.16-1.16,1.16Z"/>
    <circle cx="198.58" cy="426.96" r="1.25"/>
    <circle cx="194.77" cy="418.83" r="1.35"/>
    <circle cx="191.26" cy="410.55" r="1.44"/>
    <path d="m188.05,403.69c-.85,0-1.53-.69-1.53-1.53s.69-1.53,1.53-1.53,1.53.69,1.53,1.53-.69,1.53-1.53,1.53Z"/>
    <circle cx="185.16" cy="393.66" r="1.62"/>
    <path d="m182.59,386.77c-.95,0-1.72-.77-1.72-1.72s.77-1.72,1.72-1.72,1.72.77,1.72,1.72-.77,1.72-1.72,1.72Z"/>
    <path d="m180.33,378.15c-.99,0-1.79-.8-1.79-1.79s.8-1.79,1.79-1.79,1.79.8,1.79,1.79-.8,1.79-1.79,1.79Z"/>
    <circle cx="178.39" cy="367.58" r="1.86"/>
    <path d="m176.78,360.67c-1.06,0-1.93-.86-1.93-1.93s.86-1.93,1.93-1.93,1.93.86,1.93,1.93-.86,1.93-1.93,1.93Z"/>
    <circle cx="175.5" cy="349.85" r="1.99" transform="translate(-197.95 467.04) rotate(-80.78)"/>
    <circle cx="174.54" cy="340.92" r="2.06"/>
    <circle cx="173.91" cy="331.95" r="2.13"/>
    <circle cx="173.6" cy="322.97" r="2.2"/>
    <circle cx="173.62" cy="313.98" r="2.26"/>
    <circle cx="173.96" cy="305" r="2.33" transform="translate(-46.61 31.8) rotate(-9.22)"/>
    <circle cx="174.62" cy="296.04" r="2.4"/>
    <circle cx="175.62" cy="287.11" r="2.44"/>
    <circle cx="176.94" cy="278.21" r="2.49"/>
    <circle cx="178.58" cy="269.38" r="2.54" transform="translate(-40.84 32.08) rotate(-9.22)"/>
    <circle cx="180.55" cy="260.61" r="2.59"/>
    <circle cx="182.84" cy="251.92" r="2.64"/>
    <circle cx="185.45" cy="243.32" r="2.68"/>
    <circle cx="188.37" cy="234.82" r="2.73"/>
    <circle cx="191.61" cy="226.44" r="2.78"/>
    <circle cx="195.16" cy="218.18" r="2.83" transform="translate(-51.47 375.87) rotate(-80.78)"/>
    <circle cx="199" cy="210.06" r="2.88"/>
    <circle cx="203.14" cy="202.09" r="2.93"/>
    <circle cx="207.58" cy="194.27" r="2.97"/>
    <circle cx="212.29" cy="186.62" r="2.99"/>
    <circle cx="217.28" cy="179.15" r="3.02"/>
    <circle cx="222.54" cy="171.87" r="3.05"/>
    <circle cx="228.07" cy="164.78" r="3.08"/>
    <circle cx="233.84" cy="157.9" r="3.11" transform="translate(40.52 363.43) rotate(-80.78)"/>
    <circle cx="239.87" cy="151.24" r="3.14" transform="translate(37.57 349.94) rotate(-76.72)"/>
    <circle cx="246.13" cy="144.8" r="3.17"/>
    <circle cx="252.62" cy="138.59" r="3.2"/>
    <circle cx="259.34" cy="132.62" r="3.23" transform="translate(86.89 367.37) rotate(-80.78)"/>
    <circle cx="266.27" cy="126.9" r="3.26" transform="translate(86.86 361.02) rotate(-78.02)"/>
    <circle cx="273.4" cy="121.43" r="3.29" transform="translate(92.4 359.62) rotate(-76.72)"/>
    <circle cx="280.73" cy="116.23" r="3.32" transform="translate(51.22 315.35) rotate(-63.43)"/>
    <circle cx="288.24" cy="111.3" r="3.34" transform="translate(75.11 335.01) rotate(-67.5)"/>
    <circle cx="295.93" cy="106.65" r="3.36"/>
    <circle cx="303.79" cy="102.29" r="3.37" transform="translate(36.21 278.79) rotate(-52.02)"/>
    <circle cx="311.8" cy="98.21" r="3.38"/>
    <circle cx="319.95" cy="94.44" r="3.39"/>
    <circle cx="328.24" cy="90.96" r="3.4" transform="translate(164.3 389.52) rotate(-76.72)"/>
    <circle cx="336.65" cy="87.8" r="3.41" transform="translate(173.85 395.27) rotate(-76.72)"/>
    <circle cx="345.16" cy="84.94" r="3.42"/>
    <circle cx="353.78" cy="82.41" r="3.43" transform="translate(199.73 411.38) rotate(-78.02)"/>
    <circle cx="362.49" cy="80.19" r="3.44"/>
    <circle cx="371.27" cy="78.3" r="3.44" transform="translate(4.18 174.3) rotate(-26.57)"/>
    <circle cx="380.12" cy="76.73" r="3.45"/>
    <circle cx="389.02" cy="75.49" r="3.46" transform="translate(35.94 255.39) rotate(-37.98)"/>
    <circle cx="397.95" cy="74.57" r="3.47" transform="translate(38.39 260.7) rotate(-37.98)"/>
    <circle cx="406.92" cy="73.98" r="3.48"/>
    <circle cx="415.91" cy="73.71" r="3.49"/>
    <circle cx="424.89" cy="73.77" r="3.5" transform="translate(168.9 420.81) rotate(-63.43)"/>
    <circle cx="433.87" cy="74.15" r="3.49" transform="translate(108.42 370.5) rotate(-52.02)"/>
    <circle cx="442.83" cy="74.85" r="3.48"/>
    <circle cx="451.76" cy="75.89" r="3.47" transform="translate(181.85 446.02) rotate(-63.43)"/>
    <circle cx="460.65" cy="77.25" r="3.46" transform="translate(267.75 502.63) rotate(-75.13)"/>
    <circle cx="469.47" cy="78.93" r="3.45"/>
    <circle cx="478.23" cy="80.94" r="3.44" transform="translate(289.58 527.78) rotate(-76.72)"/>
    <circle cx="486.91" cy="83.27" r="3.43"/>
    <circle cx="495.5" cy="85.92" r="3.42"/>
    <circle cx="503.98" cy="88.89" r="3.41"/>
    <path d="m512.36,95.56c-1.88,0-3.4-1.52-3.4-3.4s1.52-3.4,3.4-3.4,3.4,1.52,3.4,3.4-1.52,3.4-3.4,3.4Z"/>
    <circle cx="520.6" cy="95.75" r="3.39"/>
    <path d="m528.7,103.01c-1.87,0-3.38-1.51-3.38-3.38s1.51-3.38,3.38-3.38,3.38,1.51,3.38,3.38-1.51,3.38-3.38,3.38Z"/>
    <circle cx="536.66" cy="103.81" r="3.37"/>
    <path d="m544.45,111.64c-1.86,0-3.36-1.5-3.36-3.36s1.5-3.36,3.36-3.36,3.36,1.5,3.36,3.36-1.5,3.36-3.36,3.36Z"/>
    <circle cx="552.08" cy="113.03" r="3.35"/>
    <path d="m559.53,121.38c-1.84,0-3.33-1.49-3.33-3.33s1.49-3.33,3.33-3.33,3.33,1.49,3.33,3.33-1.49,3.33-3.33,3.33Z"/>
    <path d="m566.79,126.64c-1.82,0-3.3-1.48-3.3-3.3s1.48-3.3,3.3-3.3,3.3,1.48,3.3,3.3-1.48,3.3-3.3,3.3Z"/>
    <path d="m573.85,132.17c-1.8,0-3.27-1.46-3.27-3.27s1.46-3.27,3.27-3.27,3.27,1.46,3.27,3.27-1.46,3.27-3.27,3.27Z"/>
    <path d="m580.7,137.95c-1.79,0-3.24-1.45-3.24-3.24s1.45-3.24,3.24-3.24,3.24,1.45,3.24,3.24-1.45,3.24-3.24,3.24Z"/>
    <path d="m587.34,143.97c-1.77,0-3.21-1.44-3.21-3.21s1.44-3.21,3.21-3.21,3.21,1.44,3.21,3.21-1.44,3.21-3.21,3.21Z"/>
    <circle cx="593.75" cy="147.06" r="3.18"/>
    <path d="m599.92,156.73c-1.74,0-3.15-1.41-3.15-3.15s1.41-3.15,3.15-3.15,3.15,1.41,3.15,3.15-1.41,3.15-3.15,3.15Z"/>
    <path d="m605.86,163.44c-1.72,0-3.12-1.4-3.12-3.12s1.4-3.12,3.12-3.12,3.12,1.4,3.12,3.12-1.4,3.12-3.12,3.12Z"/>
    <circle cx="611.55" cy="167.28" r="3.09"/>
    <path d="m616.99,177.5c-1.69,0-3.06-1.37-3.06-3.06s1.37-3.06,3.06-3.06,3.06,1.37,3.06,3.06-1.37,3.06-3.06,3.06Z"/>
    <circle cx="622.15" cy="181.79" r="3.03"/>
    <path d="m627.05,192.33c-1.66,0-3-1.34-3-3s1.34-3,3-3,3,1.34,3,3-1.34,3-3,3Z"/>
    <circle cx="631.66" cy="197.03" r="2.97"/>
    <path d="m635.99,207.85c-1.62,0-2.94-1.32-2.94-2.94s1.32-2.94,2.94-2.94,2.94,1.32,2.94,2.94-1.32,2.94-2.94,2.94Z"/>
    <circle cx="640.03" cy="212.94" r="2.89"/>
    <circle cx="643.77" cy="221.11" r="2.84"/>
    <path d="m647.21,232.21c-1.54,0-2.79-1.25-2.79-2.79s1.25-2.79,2.79-2.79,2.79,1.25,2.79,2.79-1.25,2.79-2.79,2.79Z"/>
    <circle cx="650.33" cy="237.83" r="2.74"/>
    <path d="m653.14,249.06c-1.49,0-2.69-1.21-2.69-2.69s1.21-2.69,2.69-2.69,2.69,1.21,2.69,2.69-1.21,2.69-2.69,2.69Z"/>
    <circle cx="655.64" cy="254.99" r="2.65"/>
    <path d="m657.81,266.31c-1.43,0-2.6-1.16-2.6-2.6s1.16-2.6,2.6-2.6,2.6,1.16,2.6,2.6-1.16,2.6-2.6,2.6Z"/>
    <circle cx="659.67" cy="272.5" r="2.55"/>
    <circle cx="661.2" cy="281.36" r="2.5"/>
    <circle cx="662.4" cy="290.26" r="2.45"/>
    <path d="m663.28,301.61c-1.33,0-2.4-1.08-2.4-2.4s1.08-2.4,2.4-2.4,2.4,1.08,2.4,2.4-1.08,2.4-2.4,2.4Z"/>
    <circle cx="663.83" cy="308.17" r="2.34"/>
    <path d="m664.05,319.43c-1.26,0-2.27-1.02-2.27-2.27s1.02-2.27,2.27-2.27,2.27,1.02,2.27,2.27-1.02,2.27-2.27,2.27Z"/>
    <circle cx="663.95" cy="326.15" r="2.21"/>
    <circle cx="663.53" cy="335.12" r="2.14"/>
    <path d="m662.79,346.15c-1.14,0-2.07-.93-2.07-2.07s.93-2.07,2.07-2.07,2.07.93,2.07,2.07-.93,2.07-2.07,2.07Z"/>
    <circle cx="661.71" cy="353" r="2"/>
    <circle cx="660.31" cy="361.88" r="1.94"/>
    <path d="m658.59,372.57c-1.03,0-1.87-.84-1.87-1.87s.84-1.87,1.87-1.87,1.87.84,1.87,1.87-.84,1.87-1.87,1.87Z"/>
    <path d="m656.54,381.25c-.99,0-1.8-.81-1.8-1.8s.81-1.8,1.8-1.8,1.8.81,1.8,1.8-.81,1.8-1.8,1.8Z"/>
    <path d="m654.16,389.85c-.95,0-1.73-.77-1.73-1.73s.77-1.73,1.73-1.73,1.73.77,1.73,1.73-.77,1.73-1.73,1.73Z"/>
    <path d="m651.47,398.33c-.9,0-1.63-.73-1.63-1.63s.73-1.63,1.63-1.63,1.63.73,1.63,1.63-.73,1.63-1.63,1.63Z"/>
    <circle cx="648.47" cy="405.17" r="1.54"/>
    <path d="m645.16,414.97c-.8,0-1.45-.65-1.45-1.45s.65-1.45,1.45-1.45,1.45.65,1.45,1.45-.65,1.45-1.45,1.45Z"/>
    <circle cx="641.53" cy="421.75" r="1.35"/>
    <path d="m637.61,431.09c-.7,0-1.26-.56-1.26-1.26s.56-1.26,1.26-1.26,1.26.56,1.26,1.26-.56,1.26-1.26,1.26Z"/>
    <path d="m633.4,438.94c-.64,0-1.17-.52-1.17-1.17s.52-1.17,1.17-1.17,1.17.52,1.17,1.17-.52,1.17-1.17,1.17Z"/>
    <circle cx="628.89" cy="445.54" r="1.07"/>
    <path d="m624.11,454.13c-.54,0-.98-.44-.98-.98s.44-.98.98-.98.98.44.98.98-.44.98-.98.98Z"/>
    <path d="m619.05,461.46c-.49,0-.89-.4-.89-.89s.4-.89.89-.89.89.4.89.89-.4.89-.89.89Z"/>
    <path d="m613.72,468.61c-.44,0-.79-.36-.79-.79s.36-.79.79-.79.79.36.79.79-.36.79-.79.79Z"/>
    <path d="m608.13,475.55c-.39,0-.7-.31-.7-.7s.31-.7.7-.7.7.31.7.7-.31.7-.7.7Z"/>
    <circle cx="602.28" cy="481.68" r=".61"/>
    <path d="m596.2,488.79c-.28,0-.5-.22-.5-.5s.22-.5.5-.5.5.22.5.5-.22.5-.5.5Z"/>
    <circle cx="589.88" cy="494.67" r=".38"/>
    <path d="m583.33,501.07c-.14,0-.25-.11-.25-.25s.11-.25.25-.25.25.11.25.25-.11.25-.25.25Z"/>
    <path d="m576.56,506.85c-.07,0-.13-.06-.13-.13s.06-.13.13-.13.13.06.13.13-.06.13-.13.13Z"/>
  </g>
  <g>
    <path d="m288.59,489.65c-.08,0-.14-.06-.14-.14s.06-.14.14-.14.14.06.14.14-.06.14-.14.14Z"/>
    <path d="m281.54,484.16c-.15,0-.28-.12-.28-.28s.12-.28.28-.28.28.12.28.28-.12.28-.28.28Z"/>
    <circle cx="274.73" cy="477.96" r=".42"/>
    <path d="m268.18,472.32c-.31,0-.55-.25-.55-.55s.25-.55.55-.55.55.25.55.55-.25.55-.55.55Z"/>
    <path d="m261.89,465.96c-.36,0-.66-.29-.66-.66s.29-.66.66-.66.66.29.66.66-.29.66-.66.66Z"/>
    <path d="m255.87,459.34c-.42,0-.76-.34-.76-.76s.34-.76.76-.76.76.34.76.76-.34.76-.76.76Z"/>
    <circle cx="250.14" cy="451.61" r=".86"/>
    <circle cx="244.71" cy="444.41" r=".97"/>
    <path d="m239.58,438.05c-.59,0-1.07-.48-1.07-1.07s.48-1.07,1.07-1.07,1.07.48,1.07,1.07-.48,1.07-1.07,1.07Z"/>
    <path d="m234.77,430.52c-.65,0-1.17-.53-1.17-1.17s.53-1.17,1.17-1.17,1.17.53,1.17,1.17-.53,1.17-1.17,1.17Z"/>
    <circle cx="230.29" cy="421.52" r="1.28"/>
    <path d="m226.13,414.89c-.76,0-1.38-.62-1.38-1.38s.62-1.38,1.38-1.38,1.38.62,1.38,1.38-.62,1.38-1.38,1.38Z"/>
    <circle cx="222.32" cy="405.33" r="1.49"/>
    <path d="m218.86,398.58c-.88,0-1.59-.71-1.59-1.59s.71-1.59,1.59-1.59,1.59.71,1.59,1.59-.71,1.59-1.59,1.59Z"/>
    <circle cx="215.76" cy="388.53" r="1.69"/>
    <circle cx="213.02" cy="379.94" r="1.78"/>
    <path d="m210.64,373.09c-1.03,0-1.86-.83-1.86-1.86s.83-1.86,1.86-1.86,1.86.83,1.86,1.86-.83,1.86-1.86,1.86Z"/>
    <circle cx="208.64" cy="362.44" r="1.93" transform="translate(-182.54 510.33) rotate(-80.78)"/>
    <circle cx="207.01" cy="353.57" r="2.01"/>
    <circle cx="205.75" cy="344.64" r="2.08"/>
    <circle cx="204.87" cy="335.66" r="2.16"/>
    <circle cx="204.36" cy="326.65" r="2.23"/>
    <circle cx="204.23" cy="317.63" r="2.31"/>
    <circle cx="204.47" cy="308.6" r="2.38"/>
    <circle cx="205.08" cy="299.6" r="2.44"/>
    <circle cx="206.08" cy="290.63" r="2.49"/>
    <circle cx="207.44" cy="281.71" r="2.55"/>
    <circle cx="209.18" cy="272.86" r="2.6"/>
    <circle cx="211.3" cy="264.09" r="2.65"/>
    <circle cx="213.78" cy="255.41" r="2.71"/>
    <circle cx="216.63" cy="246.85" r="2.76"/>
    <circle cx="219.84" cy="238.42" r="2.81"/>
    <circle cx="223.41" cy="230.13" r="2.87" transform="translate(-39.53 413.79) rotate(-80.78)"/>
    <circle cx="227.32" cy="222" r="2.92"/>
    <circle cx="231.57" cy="214.04" r="2.97"/>
    <circle cx="236.15" cy="206.27" r="3"/>
    <circle cx="241.05" cy="198.69" r="3.03"/>
    <circle cx="246.27" cy="191.33" r="3.06"/>
    <circle cx="251.79" cy="184.2" r="3.1"/>
    <circle cx="257.6" cy="177.3" r="3.13"/>
    <circle cx="263.7" cy="170.66" r="3.16"/>
    <circle cx="270.06" cy="164.27" r="3.19" transform="translate(34.58 375.14) rotate(-73.15)"/>
    <circle cx="276.7" cy="158.15" r="3.23" transform="translate(24.7 353.26) rotate(-67.5)"/>
    <circle cx="283.58" cy="152.32" r="3.26"/>
    <circle cx="290.7" cy="146.77" r="3.29" transform="translate(43.85 359.18) rotate(-67.5)"/>
    <circle cx="298.04" cy="141.54" r="3.32" transform="translate(102.7 407.44) rotate(-79.1)"/>
    <circle cx="305.6" cy="136.61" r="3.35" transform="translate(28.73 324.75) rotate(-58.28)"/>
    <circle cx="313.36" cy="132" r="3.36"/>
    <circle cx="321.31" cy="127.73" r="3.37" transform="translate(94.42 388.65) rotate(-70.67)"/>
    <circle cx="329.43" cy="123.79" r="3.38"/>
    <circle cx="337.71" cy="120.21" r="3.4" transform="translate(13.91 274) rotate(-45)"/>
    <circle cx="346.12" cy="116.97" r="3.41" transform="translate(105.6 391.99) rotate(-67.5)"/>
    <circle cx="354.67" cy="114.1" r="3.42" transform="translate(4.9 242.44) rotate(-37.98)"/>
    <circle cx="363.34" cy="111.59" r="3.43"/>
    <circle cx="372.1" cy="109.45" r="3.44"/>
    <circle cx="380.94" cy="107.68" r="3.45"/>
    <circle cx="389.86" cy="106.29" r="3.46" transform="translate(217.54 471.79) rotate(-80.01)"/>
    <circle cx="398.82" cy="105.27" r="3.47"/>
    <circle cx="407.82" cy="104.63" r="3.48"/>
    <circle cx="416.84" cy="104.36" r="3.49"/>
    <circle cx="425.86" cy="104.46" r="3.5"/>
    <circle cx="434.88" cy="104.94" r="3.49"/>
    <circle cx="443.86" cy="105.8" r="3.47"/>
    <circle cx="452.8" cy="107.03" r="3.46"/>
    <circle cx="461.68" cy="108.63" r="3.45"/>
    <circle cx="470.48" cy="110.61" r="3.44" transform="translate(161.14 481.96) rotate(-63.43)"/>
    <circle cx="479.19" cy="112.96" r="3.43" transform="translate(163.86 491.05) rotate(-63.43)"/>
    <circle cx="487.8" cy="115.68" r="3.42" transform="translate(194.25 522.08) rotate(-67.5)"/>
    <circle cx="496.28" cy="118.76" r="3.41" transform="translate(196.64 531.81) rotate(-67.5)"/>
    <circle cx="504.62" cy="122.19" r="3.4" transform="translate(257 578.55) rotate(-75.13)"/>
    <circle cx="512.81" cy="125.98" r="3.39"/>
    <circle cx="520.84" cy="130.11" r="3.38"/>
    <circle cx="528.68" cy="134.57" r="3.37"/>
    <circle cx="536.32" cy="139.35" r="3.36"/>
    <circle cx="543.76" cy="144.46" r="3.33"/>
    <circle cx="550.98" cy="149.87" r="3.3"/>
    <path d="m557.96,158.84c-1.81,0-3.27-1.46-3.27-3.27s1.46-3.27,3.27-3.27,3.27,1.46,3.27,3.27-1.46,3.27-3.27,3.27Z"/>
    <path d="m564.7,164.81c-1.79,0-3.24-1.45-3.24-3.24s1.45-3.24,3.24-3.24,3.24,1.45,3.24,3.24-1.45,3.24-3.24,3.24Z"/>
    <circle cx="571.19" cy="167.84" r="3.2"/>
    <path d="m577.4,177.54c-1.75,0-3.17-1.42-3.17-3.17s1.42-3.17,3.17-3.17,3.17,1.42,3.17,3.17-1.42,3.17-3.17,3.17Z"/>
    <path d="m583.34,184.3c-1.73,0-3.14-1.4-3.14-3.14s1.4-3.14,3.14-3.14,3.14,1.41,3.14,3.14-1.41,3.14-3.14,3.14Z"/>
    <path d="m588.99,191.31c-1.72,0-3.11-1.39-3.11-3.11s1.39-3.11,3.11-3.11,3.11,1.39,3.11,3.11-1.39,3.11-3.11,3.11Z"/>
    <circle cx="594.34" cy="195.46" r="3.07"/>
    <circle cx="599.38" cy="202.95" r="3.04"/>
    <path d="m604.11,213.64c-1.66,0-3.01-1.35-3.01-3.01s1.35-3.01,3.01-3.01,3.01,1.35,3.01,3.01-1.35,3.01-3.01,3.01Z"/>
    <path d="m608.5,221.49c-1.64,0-2.97-1.33-2.97-2.97s1.33-2.97,2.97-2.97,2.97,1.33,2.97,2.97-1.33,2.97-2.97,2.97Z"/>
    <circle cx="612.56" cy="226.57" r="2.93"/>
    <circle cx="616.28" cy="234.8" r="2.88"/>
    <path d="m619.64,245.99c-1.56,0-2.83-1.27-2.83-2.83s1.27-2.83,2.83-2.83,2.83,1.27,2.83,2.83-1.27,2.83-2.83,2.83Z"/>
    <circle cx="622.65" cy="251.67" r="2.77"/>
    <circle cx="625.29" cy="260.29" r="2.72"/>
    <circle cx="627.57" cy="269.02" r="2.66"/>
    <circle cx="629.47" cy="277.84" r="2.61"/>
    <circle cx="631" cy="286.73" r="2.56"/>
    <path d="m632.16,298.18c-1.38,0-2.5-1.12-2.5-2.5s1.12-2.5,2.5-2.5,2.5,1.12,2.5,2.5-1.12,2.5-2.5,2.5Z"/>
    <path d="m632.94,307.11c-1.35,0-2.45-1.1-2.45-2.45s1.1-2.45,2.45-2.45,2.45,1.1,2.45,2.45-1.1,2.45-2.45,2.45Z"/>
    <path d="m633.34,316.07c-1.32,0-2.39-1.07-2.39-2.39s1.07-2.39,2.39-2.39,2.39,1.07,2.39,2.39-1.07,2.39-2.39,2.39Z"/>
    <path d="m633.37,325.02c-1.28,0-2.32-1.04-2.32-2.32s1.04-2.32,2.32-2.32,2.32,1.04,2.32,2.32-1.04,2.32-2.32,2.32Z"/>
    <circle cx="633.03" cy="331.72" r="2.24"/>
    <circle cx="632.31" cy="340.72" r="2.17"/>
    <circle cx="631.22" cy="349.67" r="2.09"/>
    <path d="m629.75,360.59c-1.11,0-2.02-.9-2.02-2.02s.9-2.02,2.02-2.02,2.02.9,2.02,2.02-.9,2.02-2.02,2.02Z"/>
    <path d="m627.91,369.35c-1.07,0-1.94-.87-1.94-1.94s.87-1.94,1.94-1.94,1.94.87,1.94,1.94-.87,1.94-1.94,1.94Z"/>
    <path d="m625.69,378.02c-1.03,0-1.87-.84-1.87-1.87s.84-1.87,1.87-1.87,1.87.84,1.87,1.87-.84,1.87-1.87,1.87Z"/>
    <path d="m623.1,386.6c-.99,0-1.79-.8-1.79-1.79s.8-1.79,1.79-1.79,1.79.8,1.79,1.79-.8,1.79-1.79,1.79Z"/>
    <path d="m620.16,395.03c-.94,0-1.7-.76-1.7-1.7s.76-1.7,1.7-1.7,1.7.76,1.7,1.7-.76,1.7-1.7,1.7Z"/>
    <path d="m616.85,403.33c-.88,0-1.6-.72-1.6-1.6s.72-1.6,1.6-1.6,1.6.72,1.6,1.6-.72,1.6-1.6,1.6Z"/>
    <path d="m613.19,411.47c-.83,0-1.49-.67-1.49-1.49s.67-1.49,1.49-1.49,1.49.67,1.49,1.49-.67,1.49-1.49,1.49Z"/>
    <path d="m609.19,419.45c-.77,0-1.39-.62-1.39-1.39s.62-1.39,1.39-1.39,1.39.62,1.39,1.39-.62,1.39-1.39,1.39Z"/>
    <path d="m604.85,427.26c-.71,0-1.29-.58-1.29-1.29s.58-1.29,1.29-1.29,1.29.58,1.29,1.29-.58,1.29-1.29,1.29Z"/>
    <circle cx="600.17" cy="433.69" r="1.18"/>
    <path d="m595.18,442.29c-.6,0-1.08-.48-1.08-1.08s.48-1.08,1.08-1.08,1.08.48,1.08,1.08-.48,1.08-1.08,1.08Z"/>
    <path d="m589.88,449.48c-.54,0-.97-.44-.97-.97s.44-.97.97-.97.97.44.97.97-.44.97-.97.97Z"/>
    <circle cx="584.28" cy="455.58" r=".87"/>
    <path d="m578.39,463.18c-.42,0-.76-.34-.76-.76s.34-.76.76-.76.76.34.76.76-.34.76-.76.76Z"/>
    <path d="m572.21,469.65c-.36,0-.66-.3-.66-.66s.3-.66.66-.66.66.3.66.66-.3.66-.66.66Z"/>
    <circle cx="565.77" cy="475.31" r=".56"/>
    <path d="m559.07,481.77c-.23,0-.42-.19-.42-.42s.19-.42.42-.42.42.19.42.42-.19.42-.42.42Z"/>
    <path d="m552.12,487.39c-.15,0-.28-.13-.28-.28s.13-.28.28-.28.28.13.28.28-.13.28-.28.28Z"/>
    <path d="m544.94,492.71c-.08,0-.14-.06-.14-.14s.06-.14.14-.14.14.06.14.14-.06.14-.14.14Z"/>
  </g>
  <g>
    <circle cx="321.06" cy="474.77" r=".16"/>
    <circle cx="313.54" cy="469.78" r=".31"/>
    <path d="m306.27,464.9c-.26,0-.47-.21-.47-.47s.21-.47.47-.47.47.21.47.47-.21.47-.47.47Z"/>
    <path d="m299.28,459.34c-.34,0-.61-.27-.61-.61s.27-.61.61-.61.61.27.61.61-.27.61-.61.61Z"/>
    <path d="m292.57,453.43c-.4,0-.72-.32-.72-.72s.32-.72.72-.72.72.32.72.72-.32.72-.72.72Z"/>
    <path d="m286.16,447.19c-.46,0-.84-.38-.84-.84s.38-.84.84-.84.84.38.84.84-.38.84-.84.84Z"/>
    <path d="m280.07,440.65c-.53,0-.96-.43-.96-.96s.43-.96.96-.96.96.43.96.96-.43.96-.96.96Z"/>
    <path d="m274.31,433.82c-.59,0-1.08-.48-1.08-1.08s.48-1.08,1.08-1.08,1.08.48,1.08,1.08-.48,1.08-1.08,1.08Z"/>
    <circle cx="268.89" cy="425.52" r="1.19"/>
    <path d="m263.84,419.36c-.72,0-1.31-.59-1.31-1.31s.59-1.31,1.31-1.31,1.31.59,1.31,1.31-.59,1.31-1.31,1.31Z"/>
    <path d="m259.16,411.76c-.79,0-1.43-.64-1.43-1.43s.64-1.43,1.43-1.43,1.43.64,1.43,1.43-.64,1.43-1.43,1.43Z"/>
    <circle cx="254.86" cy="402.39" r="1.54" transform="translate(-183.16 589.51) rotate(-80.78)"/>
    <path d="m250.96,395.92c-.92,0-1.66-.74-1.66-1.66s.74-1.66,1.66-1.66,1.66.74,1.66,1.66-.74,1.66-1.66,1.66Z"/>
    <path d="m247.46,387.7c-.98,0-1.77-.79-1.77-1.77s.79-1.77,1.77-1.77,1.77.79,1.77,1.77-.79,1.77-1.77,1.77Z"/>
    <path d="m244.38,379.31c-1.02,0-1.86-.83-1.86-1.86s.83-1.86,1.86-1.86,1.86.83,1.86,1.86-.83,1.86-1.86,1.86Z"/>
    <path d="m241.73,370.77c-1.07,0-1.94-.87-1.94-1.94s.87-1.94,1.94-1.94,1.94.87,1.94,1.94-.87,1.94-1.94,1.94Z"/>
    <circle cx="239.5" cy="360.09" r="2.02"/>
    <circle cx="237.71" cy="351.25" r="2.11" transform="translate(-147.08 529.62) rotate(-80.78)"/>
    <circle cx="236.35" cy="342.32" r="2.19" transform="translate(-127.59 543.8) rotate(-84.34)"/>
    <circle cx="235.44" cy="333.35" r="2.28"/>
    <circle cx="234.96" cy="324.33" r="2.36"/>
    <circle cx="234.92" cy="315.31" r="2.43"/>
    <circle cx="235.31" cy="306.29" r="2.49" transform="translate(-104.72 489.5) rotate(-80.78)"/>
    <circle cx="236.14" cy="297.3" r="2.55"/>
    <circle cx="237.41" cy="288.36" r="2.61"/>
    <circle cx="239.12" cy="279.5" r="2.68"/>
    <circle cx="241.26" cy="270.73" r="2.74"/>
    <circle cx="243.84" cy="262.08" r="2.8"/>
    <circle cx="246.84" cy="253.57" r="2.86"/>
    <circle cx="250.25" cy="245.21" r="2.92"/>
    <circle cx="254.08" cy="237.04" r="2.97" transform="translate(-35 429.86) rotate(-76.72)"/>
    <circle cx="258.3" cy="229.06" r="3.01"/>
    <circle cx="262.9" cy="221.3" r="3.04" transform="translate(-63.56 328.6) rotate(-58.28)"/>
    <circle cx="267.89" cy="213.78" r="3.08" transform="translate(-54.8 329.27) rotate(-58.28)"/>
    <circle cx="273.23" cy="206.51" r="3.12" transform="translate(-22.12 379.91) rotate(-67.5)"/>
    <circle cx="278.92" cy="199.51" r="3.15" transform="translate(7.15 408.65) rotate(-73.15)"/>
    <circle cx="284.95" cy="192.8" r="3.19" transform="translate(-2.22 382.27) rotate(-67.5)"/>
    <circle cx="291.3" cy="186.38" r="3.23" transform="translate(7.63 384.18) rotate(-67.5)"/>
    <circle cx="297.95" cy="180.29" r="3.26"/>
    <circle cx="304.89" cy="174.52" r="3.3" transform="translate(26.98 389.42) rotate(-67.5)"/>
    <circle cx="312.11" cy="169.1" r="3.34" transform="translate(4.18 345.7) rotate(-58.28)"/>
    <circle cx="319.58" cy="164.04" r="3.36" transform="translate(45.73 396.52) rotate(-67.5)"/>
    <circle cx="327.3" cy="159.35" r="3.37" transform="translate(54.82 400.75) rotate(-67.5)"/>
    <circle cx="335.23" cy="155.05" r="3.38" transform="translate(-31.45 199.4) rotate(-31.72)"/>
    <circle cx="343.37" cy="151.14" r="3.39" transform="translate(99.21 435.98) rotate(-73.15)"/>
    <circle cx="351.68" cy="147.64" r="3.41"/>
    <circle cx="360.16" cy="144.55" r="3.42"/>
    <circle cx="368.78" cy="141.89" r="3.43"/>
    <circle cx="377.52" cy="139.66" r="3.44"/>
    <circle cx="386.36" cy="137.86" r="3.46"/>
    <circle cx="395.29" cy="136.5" r="3.47" transform="translate(71.36 400.99) rotate(-58.28)"/>
    <circle cx="404.26" cy="135.57" r="3.48" transform="translate(124.31 457.18) rotate(-67.5)"/>
    <circle cx="413.28" cy="135.09" r="3.49" transform="translate(130.32 465.21) rotate(-67.5)"/>
    <circle cx="422.3" cy="135.04" r="3.5" transform="translate(135.94 473.52) rotate(-67.5)"/>
    <circle cx="431.32" cy="135.42" r="3.48"/>
    <circle cx="440.31" cy="136.25" r="3.47" transform="translate(145.93 490.9) rotate(-67.5)"/>
    <circle cx="449.25" cy="137.51" r="3.46" transform="translate(-18.43 182.39) rotate(-22.5)"/>
    <circle cx="458.11" cy="139.21" r="3.45" transform="translate(234.78 562.73) rotate(-79.1)"/>
    <circle cx="466.88" cy="141.35" r="3.43" transform="translate(101.19 464.19) rotate(-58.28)"/>
    <circle cx="475.53" cy="143.92" r="3.42"/>
    <circle cx="484.05" cy="146.91" r="3.41"/>
    <circle cx="492.41" cy="150.32" r="3.4"/>
    <circle cx="500.59" cy="154.14" r="3.39"/>
    <circle cx="508.57" cy="158.35" r="3.37"/>
    <circle cx="516.33" cy="162.95" r="3.36"/>
    <path d="m523.86,171.28c-1.85,0-3.35-1.5-3.35-3.35s1.5-3.35,3.35-3.35,3.35,1.5,3.35,3.35-1.5,3.35-3.35,3.35Z"/>
    <circle cx="531.13" cy="173.27" r="3.31"/>
    <path d="m538.13,182.23c-1.81,0-3.27-1.47-3.27-3.27s1.47-3.27,3.27-3.27,3.27,1.47,3.27,3.27-1.47,3.27-3.27,3.27Z"/>
    <path d="m544.85,188.21c-1.79,0-3.24-1.45-3.24-3.24s1.45-3.24,3.24-3.24,3.24,1.45,3.24,3.24-1.45,3.24-3.24,3.24Z"/>
    <circle cx="551.27" cy="191.32" r="3.2"/>
    <path d="m557.37,201.13c-1.75,0-3.16-1.42-3.16-3.16s1.42-3.16,3.16-3.16,3.16,1.42,3.16,3.16-1.42,3.16-3.16,3.16Z"/>
    <path d="m563.14,208.03c-1.73,0-3.12-1.4-3.12-3.12s1.4-3.12,3.12-3.12,3.12,1.4,3.12,3.12-1.4,3.12-3.12,3.12Z"/>
    <path d="m568.57,215.21c-1.71,0-3.09-1.38-3.09-3.09s1.38-3.09,3.09-3.09,3.09,1.38,3.09,3.09-1.38,3.09-3.09,3.09Z"/>
    <path d="m573.63,222.64c-1.68,0-3.05-1.37-3.05-3.05s1.37-3.05,3.05-3.05,3.05,1.37,3.05,3.05-1.37,3.05-3.05,3.05Z"/>
    <circle cx="578.33" cy="227.3" r="3.01"/>
    <path d="m582.64,238.2c-1.64,0-2.98-1.33-2.98-2.98s1.33-2.98,2.98-2.98,2.98,1.33,2.98,2.98-1.33,2.98-2.98,2.98Z"/>
    <circle cx="586.55" cy="243.36" r="2.93"/>
    <path d="m590.06,254.54c-1.58,0-2.87-1.28-2.87-2.87s1.28-2.87,2.87-2.87,2.87,1.28,2.87,2.87-1.28,2.87-2.87,2.87Z"/>
    <path d="m593.15,262.96c-1.55,0-2.81-1.26-2.81-2.81s1.26-2.81,2.81-2.81,2.81,1.26,2.81,2.81-1.26,2.81-2.81,2.81Z"/>
    <circle cx="595.82" cy="268.77" r="2.75"/>
    <path d="m598.06,280.19c-1.48,0-2.69-1.2-2.69-2.69s1.2-2.69,2.69-2.69,2.69,1.2,2.69,2.69-1.2,2.69-2.69,2.69Z"/>
    <circle cx="599.87" cy="286.35" r="2.62"/>
    <circle cx="601.24" cy="295.27" r="2.56"/>
    <path d="m602.17,306.75c-1.38,0-2.5-1.12-2.5-2.5s1.12-2.5,2.5-2.5,2.5,1.12,2.5,2.5-1.12,2.5-2.5,2.5Z"/>
    <circle cx="602.66" cy="313.26" r="2.44"/>
    <path d="m602.72,324.65c-1.31,0-2.37-1.06-2.37-2.37s1.06-2.37,2.37-2.37,2.37,1.06,2.37,2.37-1.06,2.37-2.37,2.37Z"/>
    <circle cx="602.34" cy="331.3" r="2.29"/>
    <circle cx="601.52" cy="340.29" r="2.2"/>
    <circle cx="600.26" cy="349.23" r="2.12"/>
    <circle cx="598.57" cy="358.1" r="2.03"/>
    <circle cx="596.44" cy="366.87" r="1.95"/>
    <path d="m593.88,377.39c-1.03,0-1.86-.83-1.86-1.86s.83-1.86,1.86-1.86,1.86.83,1.86,1.86-.83,1.86-1.86,1.86Z"/>
    <circle cx="590.89" cy="384.04" r="1.78"/>
    <circle cx="587.49" cy="392.4" r="1.67"/>
    <path d="m583.68,402.14c-.86,0-1.55-.7-1.55-1.55s.7-1.55,1.55-1.55,1.55.7,1.55,1.55-.7,1.55-1.55,1.55Z"/>
    <path d="m579.47,410c-.79,0-1.44-.64-1.44-1.44s.64-1.44,1.44-1.44,1.44.64,1.44,1.44-.64,1.44-1.44,1.44Z"/>
    <path d="m574.87,417.65c-.73,0-1.32-.59-1.32-1.32s.59-1.32,1.32-1.32,1.32.59,1.32,1.32-.59,1.32-1.32,1.32Z"/>
    <path d="m569.9,425.07c-.66,0-1.2-.54-1.2-1.2s.54-1.2,1.2-1.2,1.2.54,1.2,1.2-.54,1.2-1.2,1.2Z"/>
    <path d="m564.56,432.23c-.6,0-1.08-.48-1.08-1.08s.48-1.08,1.08-1.08,1.08.48,1.08,1.08-.48,1.08-1.08,1.08Z"/>
    <circle cx="558.88" cy="438.16" r=".96"/>
    <circle cx="552.86" cy="444.89" r=".85"/>
    <path d="m546.52,452.04c-.4,0-.73-.33-.73-.73s.33-.73.73-.73.73.33.73.73-.33.73-.73.73Z"/>
    <path d="m539.87,458.03c-.34,0-.61-.27-.61-.61s.27-.61.61-.61.61.27.61.61-.27.61-.61.61Z"/>
    <path d="m532.94,463.67c-.26,0-.47-.21-.47-.47s.21-.47.47-.47.47.21.47.47-.21.47-.47.47Z"/>
    <path d="m525.73,468.94c-.17,0-.32-.14-.32-.32s.14-.32.32-.32.32.14.32.32-.14.32-.32.32Z"/>
    <path d="m518.26,473.85c-.09,0-.16-.07-.16-.16s.07-.16.16-.16.16.07.16.16-.07.16-.16.16Z"/>
  </g>
  <g>
    <path d="m352.33,457.27c-.1,0-.18-.08-.18-.18s.08-.18.18-.18.18.08.18.18-.08.18-.18.18Z"/>
    <path d="m344.31,453.28c-.2,0-.36-.16-.36-.36s.16-.36.36-.36.36.16.36.36-.16.36-.36.36Z"/>
    <path d="m336.55,448.84c-.3,0-.54-.24-.54-.54s.24-.54.54-.54.54.24.54.54-.24.54-.54.54Z"/>
    <path d="m329.08,443.9c-.37,0-.68-.3-.68-.68s.3-.68.68-.68.68.3.68.68-.3.68-.68.68Z"/>
    <path d="m321.92,438.53c-.45,0-.81-.36-.81-.81s.36-.81.81-.81.81.36.81.81-.36.81-.81.81Z"/>
    <path d="m315.1,432.74c-.52,0-.95-.42-.95-.95s.42-.95.95-.95.95.42.95.95-.42.95-.95.95Z"/>
    <path d="m308.63,426.57c-.6,0-1.08-.48-1.08-1.08s.48-1.08,1.08-1.08,1.08.48,1.08,1.08-.48,1.08-1.08,1.08Z"/>
    <path d="m302.54,420.03c-.67,0-1.22-.54-1.22-1.22s.54-1.22,1.22-1.22,1.22.54,1.22,1.22-.54,1.22-1.22,1.22Z"/>
    <path d="m296.85,413.15c-.75,0-1.35-.61-1.35-1.35s.61-1.35,1.35-1.35,1.35.61,1.35,1.35-.61,1.35-1.35,1.35Z"/>
    <path d="m291.59,405.94c-.82,0-1.49-.67-1.49-1.49s.67-1.49,1.49-1.49,1.49.67,1.49,1.49-.67,1.49-1.49,1.49Z"/>
    <circle cx="286.76" cy="396.81" r="1.62"/>
    <path d="m282.4,390.66c-.97,0-1.75-.79-1.75-1.75s.79-1.75,1.75-1.75,1.75.79,1.75,1.75-.79,1.75-1.75,1.75Z"/>
    <path d="m278.51,382.6c-1.02,0-1.85-.83-1.85-1.85s.83-1.85,1.85-1.85,1.85.83,1.85,1.85-.83,1.85-1.85,1.85Z"/>
    <circle cx="275.11" cy="372.38" r="1.95"/>
    <path d="m272.21,365.87c-1.13,0-2.05-.92-2.05-2.05s.92-2.05,2.05-2.05,2.05.92,2.05,2.05-.92,2.05-2.05,2.05Z"/>
    <circle cx="269.83" cy="355.11" r="2.14"/>
    <circle cx="267.97" cy="346.27" r="2.24"/>
    <circle cx="266.63" cy="337.34" r="2.34"/>
    <circle cx="265.82" cy="328.34" r="2.42" transform="translate(-100.86 538.13) rotate(-80.78)"/>
    <circle cx="265.54" cy="319.31" r="2.49" transform="translate(-148.01 281.29) rotate(-45)"/>
    <circle cx="265.78" cy="310.27" r="2.56" transform="translate(-141.55 278.81) rotate(-45)"/>
    <circle cx="266.54" cy="301.27" r="2.63" transform="translate(-134.96 276.71) rotate(-45)"/>
    <circle cx="267.84" cy="292.32" r="2.7" transform="translate(-91.48 124.75) rotate(-22.5)"/>
    <circle cx="269.66" cy="283.47" r="2.77"/>
    <circle cx="272" cy="274.75" r="2.84"/>
    <circle cx="274.86" cy="266.17" r="2.91" transform="translate(-80.94 125.45) rotate(-22.5)"/>
    <circle cx="278.22" cy="257.79" r="2.97"/>
    <circle cx="282.07" cy="249.62" r="3.01" transform="translate(-38.57 447.25) rotate(-73.15)"/>
    <circle cx="286.4" cy="241.69" r="3.06"/>
    <circle cx="291.19" cy="234.02" r="3.1"/>
    <circle cx="296.42" cy="226.66" r="3.14" transform="translate(-64.18 130.69) rotate(-22.5)"/>
    <circle cx="302.07" cy="219.61" r="3.18" transform="translate(-43.55 361.11) rotate(-58.28)"/>
    <circle cx="308.12" cy="212.91" r="3.23" transform="translate(40.78 475.21) rotate(-79.1)"/>
    <circle cx="314.56" cy="206.58" r="3.27"/>
    <circle cx="321.36" cy="200.63" r="3.31"/>
    <circle cx="328.49" cy="195.08" r="3.35" transform="translate(74.81 480.76) rotate(-79.1)"/>
    <circle cx="335.94" cy="189.97" r="3.36" transform="translate(31.87 427.64) rotate(-67.5)"/>
    <circle cx="343.68" cy="185.31" r="3.38" transform="translate(40.96 431.91) rotate(-67.5)"/>
    <circle cx="351.68" cy="181.11" r="3.39" transform="translate(49.78 436.71) rotate(-67.5)"/>
    <circle cx="359.91" cy="177.39" r="3.41" transform="translate(117.67 497.26) rotate(-79.1)"/>
    <circle cx="368.35" cy="174.16" r="3.42" transform="translate(94.92 476.24) rotate(-73.15)"/>
    <circle cx="376.96" cy="171.44" r="3.43" transform="translate(32.94 401.97) rotate(-58.28)"/>
    <circle cx="385.72" cy="169.24" r="3.45"/>
    <circle cx="394.6" cy="167.56" r="3.46" transform="translate(119.88 496.67) rotate(-73.15)"/>
    <circle cx="403.56" cy="166.41" r="3.48" transform="translate(49.84 422.21) rotate(-58.28)"/>
    <circle cx="412.57" cy="165.78" r="3.49" transform="translate(101.52 483.51) rotate(-67.5)"/>
    <circle cx="421.61" cy="165.69" r="3.5" transform="translate(107.19 491.8) rotate(-67.5)"/>
    <circle cx="430.64" cy="166.11" r="3.48" transform="translate(112.37 500.4) rotate(-67.5)"/>
    <circle cx="439.62" cy="167.06" r="3.47" transform="translate(66.39 453.2) rotate(-58.28)"/>
    <circle cx="448.54" cy="168.54" r="3.45" transform="translate(198.22 577.11) rotate(-79.1)"/>
    <circle cx="457.35" cy="170.54" r="3.44"/>
    <circle cx="466.03" cy="173.07" r="3.42"/>
    <circle cx="474.54" cy="176.1" r="3.41"/>
    <circle cx="482.85" cy="179.64" r="3.4"/>
    <circle cx="490.94" cy="183.66" r="3.38" transform="translate(-23.23 285.53) rotate(-31.72)"/>
    <circle cx="498.78" cy="188.15" r="3.37" transform="translate(76.51 513.52) rotate(-58.28)"/>
    <circle cx="506.34" cy="193.09" r="3.35" transform="translate(134.18 587) rotate(-67.5)"/>
    <circle cx="513.6" cy="198.47" r="3.32"/>
    <path d="m520.53,207.54c-1.81,0-3.28-1.47-3.28-3.28s1.47-3.28,3.28-3.28,3.28,1.47,3.28,3.28-1.47,3.28-3.28,3.28Z"/>
    <path d="m527.1,213.69c-1.79,0-3.23-1.45-3.23-3.23s1.45-3.23,3.23-3.23,3.23,1.45,3.23,3.23-1.45,3.23-3.23,3.23Z"/>
    <circle cx="533.3" cy="217.02" r="3.19"/>
    <path d="m539.11,227.09c-1.74,0-3.15-1.41-3.15-3.15s1.41-3.15,3.15-3.15,3.15,1.41,3.15,3.15-1.41,3.15-3.15,3.15Z"/>
    <path d="m544.51,234.3c-1.72,0-3.11-1.39-3.11-3.11s1.39-3.11,3.11-3.11,3.11,1.39,3.11,3.11-1.39,3.11-3.11,3.11Z"/>
    <circle cx="549.47" cy="238.74" r="3.06"/>
    <path d="m553.97,249.6c-1.67,0-3.02-1.35-3.02-3.02s1.35-3.02,3.02-3.02,3.02,1.35,3.02,3.02-1.35,3.02-3.02,3.02Z"/>
    <path d="m558,257.64c-1.65,0-2.98-1.33-2.98-2.98s1.33-2.98,2.98-2.98,2.98,1.33,2.98,2.98-1.33,2.98-2.98,2.98Z"/>
    <circle cx="561.55" cy="262.97" r="2.93"/>
    <circle cx="564.6" cy="271.47" r="2.85"/>
    <circle cx="567.14" cy="280.14" r="2.78"/>
    <path d="m569.16,291.66c-1.5,0-2.71-1.21-2.71-2.71s1.21-2.71,2.71-2.71,2.71,1.21,2.71,2.71-1.21,2.71-2.71,2.71Z"/>
    <path d="m570.65,300.5c-1.46,0-2.64-1.18-2.64-2.64s1.18-2.64,2.64-2.64,2.64,1.18,2.64,2.64-1.18,2.64-2.64,2.64Z"/>
    <circle cx="571.62" cy="306.84" r="2.57"/>
    <path d="m572.06,318.36c-1.38,0-2.5-1.12-2.5-2.5s1.12-2.5,2.5-2.5,2.5,1.12,2.5,2.5-1.12,2.5-2.5,2.5Z"/>
    <circle cx="571.98" cy="324.9" r="2.43"/>
    <circle cx="571.37" cy="333.91" r="2.35"/>
    <circle cx="570.23" cy="342.88" r="2.25"/>
    <circle cx="568.57" cy="351.76" r="2.15"/>
    <path d="m566.38,362.59c-1.14,0-2.06-.92-2.06-2.06s.92-2.06,2.06-2.06,2.06.92,2.06,2.06-.92,2.06-2.06,2.06Z"/>
    <path d="m563.68,371.11c-1.08,0-1.96-.88-1.96-1.96s.88-1.96,1.96-1.96,1.96.88,1.96,1.96-.88,1.96-1.96,1.96Z"/>
    <path d="m560.47,379.46c-1.03,0-1.86-.83-1.86-1.86s.83-1.86,1.86-1.86,1.86.83,1.86,1.86-.83,1.86-1.86,1.86Z"/>
    <path d="m556.76,387.6c-.97,0-1.76-.79-1.76-1.76s.79-1.76,1.76-1.76,1.76.79,1.76,1.76-.79,1.76-1.76,1.76Z"/>
    <circle cx="552.57" cy="393.85" r="1.63"/>
    <path d="m547.92,403.09c-.83,0-1.5-.67-1.5-1.5s.67-1.5,1.5-1.5,1.5.67,1.5,1.5-.67,1.5-1.5,1.5Z"/>
    <path d="m542.82,410.41c-.75,0-1.36-.61-1.36-1.36s.61-1.36,1.36-1.36,1.36.61,1.36,1.36-.61,1.36-1.36,1.36Z"/>
    <path d="m537.29,417.42c-.68,0-1.22-.55-1.22-1.22s.55-1.22,1.22-1.22,1.22.55,1.22,1.22-.55,1.22-1.22,1.22Z"/>
    <circle cx="531.35" cy="423" r="1.09"/>
    <circle cx="525.02" cy="429.45" r=".95"/>
    <path d="m518.33,436.34c-.45,0-.82-.37-.82-.82s.37-.82.82-.82.82.37.82.82-.37.82-.82.82Z"/>
    <circle cx="511.29" cy="441.19" r=".68"/>
    <path d="m503.93,446.97c-.3,0-.55-.24-.55-.55s.24-.55.55-.55.55.24.55.55-.24.55-.55.55Z"/>
    <path d="m496.28,451.59c-.2,0-.36-.16-.36-.36s.16-.36.36-.36.36.16.36.36-.16.36-.36.36Z"/>
    <path d="m488.35,455.75c-.1,0-.18-.08-.18-.18s.08-.18.18-.18.18.08.18.18-.08.18-.18.18Z"/>
  </g>
  <g>
    <circle cx="381.85" cy="435.89" r=".21"/>
    <circle cx="373.37" cy="432.86" r=".43"/>
    <path d="m365.13,429.84c-.34,0-.62-.28-.62-.62s.28-.62.62-.62.62.28.62.62-.28.62-.62.62Z"/>
    <circle cx="357.19" cy="424.97" r=".8"/>
    <path d="m349.58,421.13c-.54,0-.98-.44-.98-.98s.44-.98.98-.98.98.44.98.98-.44.98-.98.98Z"/>
    <path d="m342.34,415.94c-.63,0-1.14-.51-1.14-1.14s.51-1.14,1.14-1.14,1.14.51,1.14,1.14-.51,1.14-1.14,1.14Z"/>
    <path d="m335.52,410.22c-.71,0-1.29-.58-1.29-1.29s.58-1.29,1.29-1.29,1.29.58,1.29,1.29-.58,1.29-1.29,1.29Z"/>
    <path d="m329.14,404.01c-.79,0-1.44-.64-1.44-1.44s.64-1.44,1.44-1.44,1.44.64,1.44,1.44-.64,1.44-1.44,1.44Z"/>
    <path d="m323.24,397.35c-.87,0-1.58-.71-1.58-1.58s.71-1.58,1.58-1.58,1.58.71,1.58,1.58-.71,1.58-1.58,1.58Z"/>
    <path d="m317.86,390.28c-.95,0-1.73-.77-1.73-1.73s.77-1.73,1.73-1.73,1.73.77,1.73,1.73-.77,1.73-1.73,1.73Z"/>
    <path d="m313.01,382.81c-1.02,0-1.85-.83-1.85-1.85s.83-1.85,1.85-1.85,1.85.83,1.85,1.85-.83,1.85-1.85,1.85Z"/>
    <path d="m308.74,375c-1.08,0-1.96-.88-1.96-1.96s.88-1.96,1.96-1.96,1.96.88,1.96,1.96-.88,1.96-1.96,1.96Z"/>
    <path d="m305.06,366.89c-1.15,0-2.08-.93-2.08-2.08s.93-2.08,2.08-2.08,2.08.93,2.08,2.08-.93,2.08-2.08,2.08Z"/>
    <circle cx="302" cy="356.35" r="2.19"/>
    <circle cx="299.58" cy="347.68" r="2.3" transform="translate(-110.25 141.11) rotate(-22.5)"/>
    <circle cx="297.8" cy="338.85" r="2.41" transform="translate(-84.38 578.53) rotate(-80.78)"/>
    <circle cx="296.68" cy="329.92" r="2.49" transform="translate(-76.5 569.91) rotate(-80.78)"/>
    <circle cx="296.21" cy="320.92" r="2.58"/>
    <circle cx="296.39" cy="311.92" r="2.66"/>
    <circle cx="297.22" cy="302.95" r="2.74"/>
    <circle cx="298.72" cy="294.07" r="2.82"/>
    <circle cx="300.86" cy="285.32" r="2.91" transform="translate(-86.28 136.85) rotate(-22.5)"/>
    <circle cx="303.64" cy="276.75" r="2.97"/>
    <circle cx="307.05" cy="268.42" r="3.02" transform="translate(-99.87 295.73) rotate(-45)"/>
    <circle cx="311.06" cy="260.35" r="3.07"/>
    <circle cx="315.66" cy="252.61" r="3.12" transform="translate(-85.66 203.68) rotate(-31.72)"/>
    <circle cx="320.81" cy="245.23" r="3.17" transform="translate(-81.01 205.28) rotate(-31.72)"/>
    <circle cx="326.49" cy="238.24" r="3.22"/>
    <circle cx="332.66" cy="231.68" r="3.27" transform="translate(-72.12 209.49) rotate(-31.72)"/>
    <circle cx="339.29" cy="225.59" r="3.32" transform="translate(53.61 516.1) rotate(-79.1)"/>
    <circle cx="346.35" cy="220" r="3.36"/>
    <circle cx="353.81" cy="214.95" r="3.37"/>
    <circle cx="361.61" cy="210.45" r="3.39" transform="translate(-56.63 221.54) rotate(-31.72)"/>
    <circle cx="369.72" cy="206.54" r="3.41" transform="translate(-.34 412.46) rotate(-58.28)"/>
    <circle cx="378.1" cy="203.24" r="3.42"/>
    <circle cx="386.69" cy="200.57" r="3.44"/>
    <circle cx="395.46" cy="198.54" r="3.46" transform="translate(125.72 549.32) rotate(-79.1)"/>
    <circle cx="404.36" cy="197.16" r="3.47"/>
    <circle cx="413.34" cy="196.44" r="3.49"/>
    <circle cx="422.34" cy="196.37" r="3.49" transform="translate(112.02 543.68) rotate(-73.15)"/>
    <circle cx="431.33" cy="196.95" r="3.48"/>
    <circle cx="440.26" cy="198.18" r="3.46"/>
    <circle cx="449.06" cy="200.07" r="3.44" transform="translate(42.78 476.88) rotate(-58.28)"/>
    <circle cx="457.7" cy="202.61" r="3.43" transform="translate(-38.16 270.89) rotate(-31.72)"/>
    <circle cx="466.13" cy="205.78" r="3.41"/>
    <circle cx="474.31" cy="209.56" r="3.39" transform="translate(99.19 567.57) rotate(-67.5)"/>
    <circle cx="482.18" cy="213.94" r="3.38"/>
    <circle cx="489.71" cy="218.87" r="3.36" transform="translate(138.32 624.14) rotate(-73.15)"/>
    <circle cx="496.85" cy="224.35" r="3.33" transform="translate(44.8 529.05) rotate(-58.28)"/>
    <circle cx="503.58" cy="230.33" r="3.28"/>
    <circle cx="509.85" cy="236.79" r="3.23"/>
    <circle cx="515.64" cy="243.69" r="3.18"/>
    <path d="m520.91,254.13c-1.73,0-3.13-1.4-3.13-3.13s1.4-3.13,3.13-3.13,3.13,1.4,3.13,3.13-1.4,3.13-3.13,3.13Z"/>
    <circle cx="525.63" cy="258.67" r="3.08"/>
    <circle cx="529.77" cy="266.66" r="3.03"/>
    <path d="m533.31,277.93c-1.65,0-2.98-1.34-2.98-2.98s1.34-2.98,2.98-2.98,2.98,1.34,2.98,2.98-1.34,2.98-2.98,2.98Z"/>
    <circle cx="536.23" cy="283.46" r="2.92"/>
    <path d="m538.51,295c-1.57,0-2.83-1.27-2.83-2.83s1.27-2.83,2.83-2.83,2.83,1.27,2.83,2.83-1.27,2.83-2.83,2.83Z"/>
    <circle cx="540.14" cy="301.02" r="2.75"/>
    <circle cx="541.11" cy="309.98" r="2.67"/>
    <circle cx="541.44" cy="318.98" r="2.59"/>
    <circle cx="541.11" cy="327.98" r="2.5"/>
    <path d="m540.12,339.36c-1.34,0-2.42-1.08-2.42-2.42s1.08-2.42,2.42-2.42,2.42,1.08,2.42,2.42-1.08,2.42-2.42,2.42Z"/>
    <circle cx="538.49" cy="345.8" r="2.32"/>
    <path d="m536.2,356.71c-1.22,0-2.2-.99-2.2-2.2s.99-2.2,2.2-2.2,2.2.99,2.2,2.2-.99,2.2-2.2,2.2Z"/>
    <circle cx="533.27" cy="363.02" r="2.09"/>
    <path d="m529.72,373.27c-1.09,0-1.97-.88-1.97-1.97s.88-1.97,1.97-1.97,1.97.88,1.97,1.97-.88,1.97-1.97,1.97Z"/>
    <path d="m525.58,381.15c-1.02,0-1.85-.83-1.85-1.85s.83-1.85,1.85-1.85,1.85.83,1.85,1.85-.83,1.85-1.85,1.85Z"/>
    <circle cx="520.85" cy="386.96" r="1.74"/>
    <circle cx="515.58" cy="394.26" r="1.59"/>
    <circle cx="509.79" cy="401.16" r="1.44"/>
    <path d="m503.51,408.91c-.72,0-1.3-.58-1.3-1.3s.58-1.3,1.3-1.3,1.3.58,1.3,1.3-.58,1.3-1.3,1.3Z"/>
    <path d="m496.77,414.74c-.64,0-1.15-.51-1.15-1.15s.51-1.15,1.15-1.15,1.15.51,1.15,1.15-.51,1.15-1.15,1.15Z"/>
    <path d="m489.62,420.04c-.54,0-.98-.44-.98-.98s.44-.98.98-.98.98.44.98.98-.44.98-.98.98Z"/>
    <path d="m482.09,424.8c-.44,0-.8-.36-.8-.8s.36-.8.8-.8.8.36.8.8-.36.8-.8.8Z"/>
    <path d="m474.21,428.99c-.35,0-.63-.28-.63-.63s.28-.63.63-.63.63.28.63.63-.28.63-.63.63Z"/>
    <path d="m466.03,432.57c-.24,0-.43-.19-.43-.43s.19-.43.43-.43.43.19.43.43-.19.43-.43.43Z"/>
    <path d="m457.6,435.51c-.12,0-.21-.1-.21-.21s.1-.21.21-.21.21.1.21.21-.1.21-.21.21Z"/>
  </g>
  <g>
    <circle cx="353.28" cy="383.46" r=".34"/>
    <path d="m347.33,377.45c-.36,0-.65-.29-.65-.65s.29-.65.65-.65.65.29.65.65-.29.65-.65.65Z"/>
    <path d="m342.04,370.53c-.51,0-.93-.42-.93-.93s.42-.93.93-.93.93.42.93.93-.42.93-.93.93Z"/>
    <path d="m337.49,363.11c-.66,0-1.19-.53-1.19-1.19s.53-1.19,1.19-1.19,1.19.53,1.19,1.19-.53,1.19-1.19,1.19Z"/>
    <circle cx="333.7" cy="353.83" r="1.42"/>
    <circle cx="330.72" cy="345.41" r="1.65"/>
    <path d="m328.57,338.6c-1.02,0-1.85-.83-1.85-1.85s.83-1.85,1.85-1.85,1.85.83,1.85,1.85-.83,1.85-1.85,1.85Z"/>
    <path d="m327.28,329.94c-1.12,0-2.03-.91-2.03-2.03s.91-2.03,2.03-2.03,2.03.91,2.03,2.03-.91,2.03-2.03,2.03Z"/>
    <circle cx="326.85" cy="318.99" r="2.22"/>
    <circle cx="327.27" cy="310.06" r="2.4"/>
    <circle cx="328.55" cy="301.22" r="2.53" transform="translate(-116.76 320.55) rotate(-45)"/>
    <circle cx="330.69" cy="292.55" r="2.66"/>
    <circle cx="333.67" cy="284.12" r="2.79"/>
    <circle cx="337.45" cy="276.03" r="2.92" transform="translate(-79.95 150.15) rotate(-22.5)"/>
    <circle cx="342" cy="268.35" r="3.01"/>
    <circle cx="347.27" cy="261.14" r="3.09" transform="translate(13.33 539.13) rotate(-76.72)"/>
    <circle cx="353.21" cy="254.48" r="3.17" transform="translate(-48.96 421.16) rotate(-58.28)"/>
    <circle cx="359.77" cy="248.42" r="3.25"/>
    <circle cx="366.89" cy="243.02" r="3.32"/>
    <circle cx="374.49" cy="238.34" r="3.37" transform="translate(-69.37 232.48) rotate(-31.72)"/>
    <circle cx="382.51" cy="234.41" r="3.39"/>
    <circle cx="390.88" cy="231.29" r="3.42"/>
    <circle cx="399.51" cy="229" r="3.45"/>
    <circle cx="408.32" cy="227.56" r="3.47" transform="translate(-58.65 248.65) rotate(-31.72)"/>
    <circle cx="417.23" cy="226.98" r="3.5"/>
    <circle cx="426.17" cy="227.26" r="3.48" transform="translate(122.41 602.76) rotate(-79.1)"/>
    <circle cx="435.03" cy="228.4" r="3.45" transform="translate(128.49 612.38) rotate(-79.1)"/>
    <circle cx="443.74" cy="230.39" r="3.42"/>
    <circle cx="452.21" cy="233.22" r="3.4" transform="translate(63.69 561.76) rotate(-67.5)"/>
    <circle cx="460.36" cy="236.87" r="3.37"/>
    <circle cx="468.12" cy="241.29" r="3.33" transform="translate(66.05 581.44) rotate(-67.5)"/>
    <circle cx="475.41" cy="246.44" r="3.25" transform="translate(-58.12 200.69) rotate(-22.5)"/>
    <circle cx="482.17" cy="252.28" r="3.18"/>
    <circle cx="488.34" cy="258.73" r="3.1" transform="translate(11.51 538.11) rotate(-58.28)"/>
    <circle cx="493.85" cy="265.76" r="3.02"/>
    <circle cx="498.66" cy="273.28" r="2.93"/>
    <circle cx="502.72" cy="281.24" r="2.8"/>
    <circle cx="505.98" cy="289.55" r="2.67" transform="translate(-56.54 442.59) rotate(-45)"/>
    <circle cx="508.42" cy="298.14" r="2.53"/>
    <circle cx="510" cy="306.93" r="2.4" transform="translate(-78.63 218.53) rotate(-22.5)"/>
    <circle cx="510.73" cy="315.83" r="2.23" transform="translate(86.01 740.33) rotate(-76.72)"/>
    <circle cx="510.6" cy="324.76" r="2.04"/>
    <path d="m509.61,335.5c-1.03,0-1.86-.83-1.86-1.86s.83-1.86,1.86-1.86,1.86.83,1.86,1.86-.83,1.86-1.86,1.86Z"/>
    <path d="m507.77,344.04c-.92,0-1.66-.74-1.66-1.66s.74-1.66,1.66-1.66,1.66.74,1.66,1.66-.74,1.66-1.66,1.66Z"/>
    <path d="m505.07,352.33c-.79,0-1.43-.64-1.43-1.43s.64-1.43,1.43-1.43,1.43.64,1.43,1.43-.64,1.43-1.43,1.43Z"/>
    <circle cx="501.56" cy="359.11" r="1.2"/>
    <path d="m497.27,367.88c-.52,0-.94-.42-.94-.94s.42-.94.94-.94.94.42.94.94-.42.94-.94.94Z"/>
    <circle cx="492.24" cy="374.32" r=".65"/>
    <path d="m486.51,381.52c-.19,0-.34-.15-.34-.34s.15-.34.34-.34.34.15.34.34-.15.34-.34.34Z"/>
  </g>
  <g>
    <path d="m382.6,368.88c-.26,0-.47-.21-.47-.47s.21-.47.47-.47.47.21.47.47-.21.47-.47.47Z"/>
    <path d="m375.71,363.41c-.48,0-.87-.39-.87-.87s.39-.87.87-.87.87.39.87.87-.39.87-.87.87Z"/>
    <circle cx="369.76" cy="355.72" r="1.23"/>
    <path d="m364.87,349.65c-.86,0-1.55-.69-1.55-1.55s.69-1.55,1.55-1.55,1.55.69,1.55,1.55-.69,1.55-1.55,1.55Z"/>
    <path d="m361.16,341.69c-1.02,0-1.84-.83-1.84-1.84s.83-1.84,1.84-1.84,1.84.83,1.84,1.84-.83,1.84-1.84,1.84Z"/>
    <circle cx="358.71" cy="331.13" r="2.09"/>
    <circle cx="357.59" cy="322.14" r="2.35" transform="translate(-38.1 596.15) rotate(-76.72)"/>
    <circle cx="357.78" cy="313.09" r="2.54" transform="translate(-92.58 160.75) rotate(-22.5)"/>
    <circle cx="359.3" cy="304.16" r="2.72"/>
    <circle cx="362.12" cy="295.55" r="2.9"/>
    <circle cx="366.19" cy="287.47" r="3.03" transform="translate(23.78 602.88) rotate(-80.78)"/>
    <circle cx="371.4" cy="280.06" r="3.14"/>
    <circle cx="377.64" cy="273.51" r="3.25" transform="translate(24.68 578.21) rotate(-76.72)"/>
    <circle cx="384.77" cy="267.94" r="3.35"/>
    <circle cx="392.65" cy="263.47" r="3.39" transform="translate(46.02 585.09) rotate(-76.72)"/>
    <circle cx="401.1" cy="260.22" r="3.43"/>
    <circle cx="409.94" cy="258.26" r="3.46"/>
    <circle cx="418.97" cy="257.63" r="3.5" transform="translate(-59.46 371.71) rotate(-45)"/>
    <circle cx="428" cy="258.31" r="3.47"/>
    <circle cx="436.84" cy="260.32" r="3.43" transform="translate(-56.13 385.13) rotate(-45)"/>
    <circle cx="445.27" cy="263.61" r="3.39"/>
    <circle cx="453.12" cy="268.12" r="3.36"/>
    <circle cx="460.23" cy="273.73" r="3.26"/>
    <circle cx="466.43" cy="280.31" r="3.15" transform="translate(-61.6 411.92) rotate(-45)"/>
    <circle cx="471.61" cy="287.74" r="3.04"/>
    <circle cx="475.63" cy="295.85" r="2.91" transform="translate(107.41 717.95) rotate(-80.78)"/>
    <circle cx="478.41" cy="304.47" r="2.73"/>
    <circle cx="479.88" cy="313.4" r="2.55"/>
    <circle cx="480.03" cy="322.46" r="2.36"/>
    <path d="m478.85,333.54c-1.16,0-2.1-.94-2.1-2.1s.94-2.1,2.1-2.1,2.1.94,2.1,2.1-.94,2.1-2.1,2.1Z"/>
    <path d="m476.36,342c-1.02,0-1.85-.83-1.85-1.85s.83-1.85,1.85-1.85,1.85.83,1.85,1.85-.83,1.85-1.85,1.85Z"/>
    <path d="m472.6,349.94c-.86,0-1.56-.7-1.56-1.56s.7-1.56,1.56-1.56,1.56.7,1.56,1.56-.7,1.56-1.56,1.56Z"/>
    <path d="m467.67,357.22c-.68,0-1.24-.55-1.24-1.24s.55-1.24,1.24-1.24,1.24.55,1.24,1.24-.55,1.24-1.24,1.24Z"/>
    <path d="m461.68,363.64c-.48,0-.87-.39-.87-.87s.39-.87.87-.87.87.39.87.87-.39.87-.87.87Z"/>
    <path d="m454.76,369.08c-.26,0-.47-.21-.47-.47s.21-.47.47-.47.47.21.47.47-.21.47-.47.47Z"/>
  </g>
  <g>
    <circle cx="403.59" cy="345.55" r=".83"/>
    <path d="m396.68,341.63c-.82,0-1.48-.66-1.48-1.48s.66-1.48,1.48-1.48,1.48.66,1.48,1.48-.66,1.48-1.48,1.48Z"/>
    <path d="m391.58,335.04c-1.11,0-2.02-.9-2.02-2.02s.9-2.02,2.02-2.02,2.02.9,2.02,2.02-.9,2.02-2.02,2.02Z"/>
    <circle cx="388.7" cy="324.73" r="2.46" transform="translate(-94.68 173.47) rotate(-22.5)"/>
    <circle cx="388.3" cy="315.96" r="2.81"/>
    <circle cx="390.39" cy="307.43" r="3.09"/>
    <circle cx="394.82" cy="299.86" r="3.29"/>
    <circle cx="401.2" cy="293.84" r="3.42"/>
    <circle cx="409.03" cy="289.88" r="3.48"/>
    <circle cx="417.66" cy="288.3" r="3.48"/>
    <circle cx="426.39" cy="289.23" r="3.42" transform="translate(-78.22 185.19) rotate(-22.5)"/>
    <circle cx="434.5" cy="292.59" r="3.3" transform="translate(76.08 674.61) rotate(-80.78)"/>
    <circle cx="441.31" cy="298.11" r="3.1"/>
    <circle cx="446.29" cy="305.33" r="2.82" transform="translate(-85.19 405.01) rotate(-45)"/>
    <circle cx="449.02" cy="313.68" r="2.47"/>
    <circle cx="449.27" cy="322.45" r="2.02"/>
    <path d="m447.03,332.43c-.82,0-1.49-.67-1.49-1.49s.67-1.49,1.49-1.49,1.49.67,1.49,1.49-.67,1.49-1.49,1.49Z"/>
    <path d="m442.47,339.27c-.46,0-.83-.37-.83-.83s.37-.83.83-.83.83.37.83.83-.37.83-.83.83Z"/>
  </g>
  <text class="cls-1" transform="translate(167.89 491.47)"><tspan class="cls-4" x="0" y="0">D</tspan><tspan class="cls-3" x="103.78" y="0">Y</tspan><tspan class="cls-5" x="203.8" y="0">O</tspan><tspan class="cls-2" x="313.12" y="0">T</tspan><tspan x="399.24" y="0">A</tspan></text>
</svg>